<svg width="48" height="48" viewBox="0 0 48 48" fill="none" xmlns="http://www.w3.org/2000/svg">
<rect width="48" height="48" rx="24" fill="#0B0C0C"/>
<path d="M29.0502 32.78C28.0702 33.73 27.0002 33.58 25.9702 33.13C24.8802 32.67 23.8802 32.65 22.7302 33.13C21.2902 33.75 20.5302 33.57 19.6702 32.78C14.7902 27.75 15.5102 20.09 21.0502 19.81C22.4002 19.88 23.3402 20.55 24.1302 20.61C25.3102 20.37 26.4402 19.68 27.7002 19.77C29.2102 19.89 30.3502 20.49 31.1002 21.57C27.9802 23.44 28.7202 27.55 31.5802 28.7C31.0102 30.2 30.2702 31.69 29.0402 32.79L29.0502 32.78ZM24.0302 19.75C23.8802 17.52 25.6902 15.68 27.7702 15.5C28.0602 18.08 25.4302 20 24.0302 19.75Z" fill="white"/>
</svg>
