<svg width="56" height="56" viewBox="0 0 56 56" fill="none" xmlns="http://www.w3.org/2000/svg">
<rect x="0.5" y="0.5" width="55" height="55" rx="27.5" fill="white" fill-opacity="0.1" stroke="#E3E3E4"/>
<path d="M26.2793 16.9269V12.4089H29.1452V16.9269H26.2793ZM29.1452 39.7192V44.0686H26.2793V39.7192H29.1452ZM28.2348 40.697C25.3127 40.697 22.9751 40.0002 21.2218 38.6066C19.4686 37.213 18.4458 35.2237 18.1536 32.6388H21.6264C21.8287 34.3246 22.503 35.6058 23.6494 36.4825C24.7958 37.3591 26.3467 37.7974 28.3023 37.7974C29.9431 37.7974 31.1794 37.4939 32.0111 36.887C32.8652 36.2802 33.2923 35.4148 33.2923 34.2909C33.2923 33.2794 33.0113 32.4814 32.4494 31.897C31.8874 31.2901 30.9996 30.7956 29.7858 30.4135L25.5712 29.0648C23.4134 28.368 21.8287 27.4914 20.8172 26.435C19.8057 25.3785 19.3 24.0411 19.3 22.4227C19.3 21.0516 19.6372 19.8715 20.3115 18.8825C21.0083 17.8935 21.9748 17.1292 23.2111 16.5898C24.4698 16.0278 25.9309 15.7469 27.5942 15.7469C30.1567 15.7469 32.2021 16.3987 33.7306 17.7024C35.2816 18.9836 36.1694 20.7706 36.3942 23.0633H32.9214C32.6517 21.5348 32.0673 20.4222 31.1682 19.7254C30.2691 19.0061 29.0328 18.6465 27.4594 18.6465C25.9758 18.6465 24.8182 18.9387 23.9866 19.5231C23.1549 20.1075 22.7391 20.9279 22.7391 21.9844C22.7391 22.8385 23.0088 23.5578 23.5483 24.1422C24.1102 24.7042 25.0318 25.1875 26.313 25.5921L30.7299 27.0081C32.7753 27.66 34.2813 28.5479 35.2479 29.6717C36.2369 30.7956 36.7314 32.2117 36.7314 33.92C36.7314 36.0779 35.9896 37.7524 34.5061 38.9437C33.0226 40.1126 30.9322 40.697 28.2348 40.697Z" fill="#717477"/>
</svg>
