<svg width="56" height="56" viewBox="0 0 56 56" fill="none" xmlns="http://www.w3.org/2000/svg">
<rect width="56" height="56" rx="28" fill="white" fill-opacity="0.1"/>
<rect x="0.408759" y="0.408759" width="55.1825" height="55.1825" rx="27.5912" stroke="white" stroke-opacity="0.3" stroke-width="0.817518"/>
<path d="M26.2798 16.9269V12.4089H29.1457V16.9269H26.2798ZM29.1457 39.7192V44.0686H26.2798V39.7192H29.1457ZM28.2353 40.697C25.3132 40.697 22.9756 40.0002 21.2223 38.6066C19.4691 37.213 18.4463 35.2237 18.1541 32.6388H21.6269C21.8292 34.3246 22.5035 35.6058 23.6499 36.4825C24.7963 37.3591 26.3472 37.7974 28.3028 37.7974C29.9436 37.7974 31.1799 37.4939 32.0116 36.887C32.8657 36.2802 33.2928 35.4148 33.2928 34.2909C33.2928 33.2794 33.0118 32.4814 32.4499 31.897C31.8879 31.2901 31.0001 30.7956 29.7863 30.4135L25.5717 29.0648C23.4139 28.368 21.8292 27.4914 20.8177 26.435C19.8062 25.3785 19.3005 24.0411 19.3005 22.4227C19.3005 21.0516 19.6376 19.8715 20.312 18.8825C21.0088 17.8935 21.9753 17.1292 23.2116 16.5898C24.4703 16.0278 25.9314 15.7469 27.5947 15.7469C30.1572 15.7469 32.2026 16.3987 33.7311 17.7024C35.2821 18.9836 36.1699 20.7706 36.3947 23.0633H32.9219C32.6522 21.5348 32.0678 20.4222 31.1687 19.7254C30.2695 19.0061 29.0333 18.6465 27.4598 18.6465C25.9763 18.6465 24.8187 18.9387 23.9871 19.5231C23.1554 20.1075 22.7396 20.9279 22.7396 21.9844C22.7396 22.8385 23.0093 23.5578 23.5487 24.1422C24.1107 24.7042 25.0323 25.1875 26.3135 25.5921L30.7303 27.0081C32.7758 27.66 34.2818 28.5479 35.2483 29.6717C36.2374 30.7956 36.7319 32.2117 36.7319 33.92C36.7319 36.0779 35.9901 37.7524 34.5066 38.9437C33.0231 40.1126 30.9326 40.697 28.2353 40.697Z" fill="white"/>
</svg>
