<svg width="698" height="470" viewBox="0 0 698 470" fill="none" xmlns="http://www.w3.org/2000/svg">
<g clip-path="url(#clip0_2329_25460)">
<mask id="mask0_2329_25460" style="mask-type:luminance" maskUnits="userSpaceOnUse" x="45" y="0" width="607" height="607">
<path d="M302.119 603.42C286.374 600.976 270.584 597.22 255.186 592.257C246.999 589.617 236.307 585.427 228.356 582.144C223.153 579.996 216.392 576.715 211.373 574.166C204.664 570.758 188.901 562.517 170.648 549.271C164.394 544.733 156.329 538.302 150.45 533.288C145.336 528.926 138.949 522.625 134.033 518.042C128.464 512.848 121.54 505.359 116.843 499.366C112.594 493.942 106.701 486.883 102.681 481.287C98.2602 475.132 92.3955 466.86 88.7313 460.227C85.3391 454.087 80.556 446.037 77.4256 439.759C74.026 432.94 69.8288 423.675 66.9812 416.608C61.6101 403.278 56.2303 384.811 52.7282 370.872C50.8633 363.45 49.2126 353.355 48.1445 345.776C47.1055 338.408 46.4294 328.498 45.7099 321.092C44.9395 313.166 44.7788 302.496 45.3132 294.551C45.8048 287.244 46.1704 277.473 46.9835 270.195C47.8475 262.463 49.4052 252.196 50.9006 244.562C52.2738 237.55 54.4738 228.268 56.4269 221.394C58.5353 213.975 61.779 204.203 64.4272 196.958C66.834 190.374 70.4887 181.756 73.478 175.415C76.7963 168.378 81.8066 159.283 85.4375 152.401C89.2461 145.182 95.159 135.986 100.046 129.448C108.114 118.656 119.115 104.37 128.474 94.6752C134.509 88.4239 142.905 80.4249 149.384 74.6354C154.142 70.3833 160.826 65.1004 165.901 61.2308C174.088 54.9883 185.432 47.1643 194.416 42.137C199.498 39.2935 206.202 35.3547 211.436 32.8035C219.252 28.9942 229.747 24.0144 237.884 20.9525C241.795 19.4809 247.012 17.5251 250.963 16.1654C254.297 15.0186 258.791 13.6405 262.159 12.5989C262.24 12.5738 270.91 9.94251 280.613 7.7378C283.029 7.18848 286.254 6.46352 288.688 5.99762C295.053 4.78032 297.687 4.27644 302.475 3.55555C306.158 3.00149 311.081 2.34367 314.781 1.92524C320.454 1.28302 325.921 0.878832 326.362 0.853062C328.071 0.753372 330.348 0.581795 332.057 0.488208C333.77 0.394621 336.055 0.306462 337.77 0.229151C339.524 0.149806 341.864 0.0996188 343.62 0.0745266C349.781 -0.0136348 353.949 0.00399742 362.354 0.338333C369.869 0.637404 380.552 1.59972 386.111 2.35248C391.322 3.05845 398.255 4.113 403.435 5.02378C407.178 5.68228 412.141 6.72258 415.843 7.58317C423.586 9.38302 433.785 12.3012 441.404 14.5676C445.312 15.73 450.458 17.5061 454.248 19.0062C463.705 22.7497 476.124 28.2252 485.311 32.5892C490.455 35.0326 497.088 38.7571 501.977 41.6766C509.39 46.1023 519.243 52.1257 526.079 57.3978C532.2 62.1178 540.424 68.3407 546.314 73.3442C551.435 77.6939 558.153 83.6563 562.755 88.5513C567.972 94.1001 575.031 101.411 579.985 107.195C584.466 112.426 590.133 119.667 594.181 125.24C598.634 131.372 604.223 139.804 608.174 146.271C611.831 152.256 616.503 160.381 619.519 166.712C622.796 173.59 627.14 182.782 630.01 189.839C632.704 196.462 635.918 205.451 638.052 212.275C640.363 219.666 643.033 229.655 644.735 237.211C646.345 244.363 647.93 254.018 649.082 261.257C650.865 272.456 652.06 287.604 651.998 298.943C651.957 306.324 651.895 316.176 651.399 323.541C650.874 331.339 649.771 341.716 648.599 349.443C647.52 356.549 645.723 365.974 644.062 372.966C642.278 380.476 639.233 390.318 637.125 397.744C634.989 405.27 631.255 415.061 627.964 422.159C622.127 434.75 614.022 451.458 606.658 463.22C602.44 469.956 596.45 478.709 591.733 485.104C587.712 490.553 581.905 497.478 577.555 502.668C572.122 509.151 564.137 517.152 558.081 523.058C553.427 527.596 546.776 533.167 541.887 537.451C534.583 543.852 523.936 551.307 515.873 556.723C507.638 562.255 496.241 569.061 487.334 573.429C483.219 575.448 477.792 578.274 473.573 580.065C465.464 583.508 454.534 587.825 446.264 590.864C530.522 562.217 585.915 464.648 578.622 339.156C569.192 176.918 458.57 29.4391 331.542 9.75601C458.57 29.4391 569.192 176.918 578.621 339.156C585.914 464.648 530.521 562.216 446.263 590.863C436.903 594.027 431.21 595.563 425.182 597.189C422.627 597.878 419.192 598.694 416.614 599.29C414.232 599.841 411.037 600.5 408.646 601.009C406.44 601.479 399.056 602.843 394.752 603.473C392.888 603.745 390.406 604.131 388.537 604.36C380.752 605.315 380.116 605.393 376.626 605.697C374.898 605.848 372.596 606.064 370.865 606.175C363.525 606.647 363.085 606.675 359.449 606.8C355.918 606.921 351.208 606.974 347.676 606.996C345.775 607.007 343.241 606.971 341.34 606.912C334.517 606.703 330.398 606.578 320.15 605.665C316.294 605.322 309.259 604.528 302.119 603.42Z" fill="white"/>
</mask>
<g mask="url(#mask0_2329_25460)">
<path d="M327.082 2.54627C327.056 2.524 327.006 2.52197 327.009 2.54289C327.011 2.55706 327.044 2.57596 327.074 2.57461C327.098 2.57191 327.093 2.55572 327.082 2.54627Z" fill="black"/>
<path d="M333.404 2.14323C333.419 2.0922 333.337 2.07383 333.269 2.11261C333.214 2.14459 333.206 2.19834 333.256 2.21331C333.267 2.21671 333.277 2.21672 333.288 2.21672C333.355 2.21127 333.396 2.17045 333.404 2.14323Z" fill="black"/>
<path d="M339.717 1.97034C339.787 1.92626 339.805 1.891 339.761 1.88218C339.639 1.85912 339.3 2.01578 339.344 2.07478C339.352 2.08563 339.374 2.08631 339.388 2.08699C339.496 2.08224 339.646 2.01578 339.717 1.97034Z" fill="black"/>
<path d="M345.872 2.03911C346.015 1.98961 346.086 1.94892 346.051 1.93671C345.952 1.90145 345.271 2.10422 345.316 2.15576C345.323 2.16457 345.334 2.16186 345.343 2.16254C345.465 2.16186 345.727 2.08998 345.872 2.03911Z" fill="black"/>
<path d="M351.749 2.35275C351.846 2.33037 352.01 2.28968 352.025 2.26662C351.948 2.21508 351.156 2.40497 351.129 2.44294C351.134 2.44633 351.141 2.44904 351.147 2.4504C351.26 2.45311 351.576 2.39208 351.749 2.35275Z" fill="black"/>
<path d="M357.255 2.91412C357.348 2.8992 357.509 2.87207 357.542 2.85376C357.542 2.8524 357.542 2.85037 357.541 2.84901C357.454 2.8307 356.781 2.92496 356.704 2.96701C356.704 2.96837 356.705 2.9704 356.705 2.97176C356.707 2.97244 356.71 2.97311 356.712 2.97311C356.796 2.97922 357.09 2.94056 357.255 2.91412Z" fill="black"/>
<path d="M362.225 3.71967C362.252 3.71696 362.391 3.70136 362.409 3.69187C362.387 3.67491 361.932 3.72645 361.909 3.73798L361.912 3.74002C361.95 3.74476 362.118 3.7312 362.225 3.71967Z" fill="black"/>
<path d="M371.483 0.891201C371.686 0.904086 371.89 0.916291 372.094 0.933923L370.714 0.830164C369.329 0.727761 369.111 0.732509 369.091 0.733865C369.156 0.747429 369.222 0.749462 369.288 0.754887C370.02 0.807784 370.752 0.84373 371.483 0.891201Z" fill="black"/>
<path d="M382.084 1.99338C382.791 2.04356 382.855 2.04085 382.889 2.0395C382.681 1.96897 380.035 1.75127 379.743 1.78111C379.77 1.79535 379.77 1.79535 379.861 1.80824C380.399 1.87334 381.807 1.97439 382.084 1.99338Z" fill="black"/>
<path d="M391.598 3.55277C392.331 3.61381 392.415 3.605 392.443 3.60161C392.281 3.50395 389.871 3.29575 389.653 3.32627C389.668 3.33712 389.692 3.34594 389.71 3.35C390.172 3.43274 391.584 3.55142 391.598 3.55277Z" fill="black"/>
<path d="M399.44 5.45756C399.69 5.48265 400.001 5.50977 400.065 5.49825C399.952 5.42433 398.364 5.26225 398.239 5.28666C398.245 5.29073 398.253 5.29615 398.258 5.29954C398.444 5.34701 399.082 5.42161 399.44 5.45756Z" fill="black"/>
<path d="M405.615 7.66102C405.71 7.67255 405.825 7.68408 405.834 7.67594C405.806 7.66034 405.267 7.57761 405.244 7.59931C405.244 7.59931 405.246 7.60066 405.248 7.60134C405.295 7.6183 405.498 7.64678 405.615 7.66102Z" fill="black"/>
<path d="M431.508 11.5724C431.958 11.6965 432.408 11.8253 432.859 11.9474C432.279 11.7724 428.727 10.7674 428.207 10.6582C428.242 10.6711 428.29 10.686 428.325 10.6962C429.383 10.9993 430.447 11.2801 431.508 11.5724Z" fill="black"/>
<path d="M440.347 14.7614C440.762 14.8774 441.276 15.0157 441.367 15.0157C441.285 14.9194 438.554 14.1213 438.322 14.126C438.331 14.1375 438.349 14.147 438.362 14.1531C438.718 14.2969 439.915 14.6407 440.347 14.7614Z" fill="black"/>
<path d="M446.785 18.3056C446.977 18.3612 447.209 18.4236 447.228 18.4053C447.15 18.3361 446.186 18.0384 446.044 18.0391C446.042 18.0404 446.04 18.0431 446.038 18.0445C446.04 18.0458 446.043 18.0486 446.044 18.0499C446.136 18.1042 446.532 18.2317 446.785 18.3056Z" fill="black"/>
<path d="M473.367 26.8685C473.716 27.0265 474.063 27.1859 474.411 27.3466L469.392 25.1094C469.428 25.1229 469.476 25.1433 469.511 25.1582C470.028 25.3827 471.729 26.1259 473.367 26.8685Z" fill="black"/>
<path d="M481.542 31.432C482.032 31.6538 482.643 31.921 482.778 31.9393C482.741 31.7616 479.432 30.2818 479.213 30.2588C479.216 30.2744 479.233 30.2907 479.246 30.3008C479.594 30.5246 480.84 31.1133 481.542 31.432Z" fill="black"/>
<path d="M486.608 36.3402C486.699 36.383 487.002 36.5199 487.058 36.5077C487.048 36.3979 485.984 35.9259 485.913 35.9428C485.914 35.9462 485.914 35.9516 485.914 35.955C485.984 36.0317 486.361 36.2263 486.608 36.3402Z" fill="black"/>
<path d="M513.903 49.1229C515.374 50.0594 515.537 50.1537 515.616 50.1984C515.482 50.0486 510.819 47.049 510.192 46.71C510.211 46.7351 510.246 46.7601 510.272 46.7778C510.841 47.167 512.561 48.2677 513.903 49.1229Z" fill="black"/>
<path d="M519.914 55.043C520.153 55.1956 520.944 55.692 521.055 55.6581C521.069 55.4547 518.254 53.5714 518.042 53.6426C518.041 53.6555 518.05 53.6724 518.056 53.684C518.273 53.9423 519.273 54.6341 519.914 55.043Z" fill="black"/>
<path d="M522.212 61.3169C522.392 61.4342 522.525 61.4939 522.523 61.4553C522.518 61.3691 521.849 60.9121 521.814 60.9711C521.813 60.9724 521.813 60.9751 521.812 60.9772C521.832 61.0477 522.067 61.2233 522.212 61.3169Z" fill="black"/>
<path d="M550.264 77.8383C550.736 78.2371 551.556 78.9153 551.756 78.9777C551.815 78.6657 547.898 75.3854 547.592 75.2959C547.587 75.3203 547.601 75.3542 547.613 75.3752C547.993 75.8554 549.441 77.1412 550.264 77.8383Z" fill="black"/>
<path d="M552.818 85.0377C553.263 85.4175 553.594 85.6149 553.587 85.4955C553.569 85.1869 551.926 83.7248 551.829 83.931C551.826 83.9364 551.827 83.9452 551.826 83.9513C551.877 84.1602 552.437 84.7122 552.818 85.0377Z" fill="black"/>
<path d="M551.135 92.6844L551.066 92.5891L550.975 92.5381L551.043 92.6333L551.135 92.6844Z" fill="black"/>
<path d="M577.282 104.4C577.82 104.998 578.747 106.017 578.909 106.121C578.759 105.687 574.312 100.766 574.064 100.615C574.077 100.652 574.104 100.697 574.126 100.728C574.648 101.426 576.339 103.351 577.282 104.4Z" fill="black"/>
<path d="M580.049 112.424C580.689 113.132 581.161 113.501 581.147 113.283C581.114 112.792 578.881 110.187 578.632 110.349C578.617 110.359 578.615 110.388 578.614 110.407C578.691 110.788 579.499 111.816 580.049 112.424Z" fill="black"/>
<path d="M578.022 120.764C578.14 120.896 578.24 120.957 578.249 120.902C578.271 120.782 577.905 120.351 577.833 120.412C577.831 120.413 577.83 120.417 577.829 120.418C577.807 120.488 577.936 120.667 578.022 120.764Z" fill="black"/>
<path d="M600.575 134.386C601.09 135.149 601.412 135.629 601.723 136.099L597.466 129.845C598.24 130.949 599.645 133.009 600.575 134.386Z" fill="black"/>
<path d="M603.495 143.058C603.716 143.379 604.451 144.421 604.652 144.367C604.85 143.994 602.329 140.039 601.954 140.136C601.943 140.157 601.938 140.19 601.938 140.215C602.03 140.75 602.905 142.199 603.495 143.058Z" fill="black"/>
<path d="M601.245 152.109C601.475 152.445 601.687 152.606 601.717 152.468C601.782 152.168 601.058 151.056 600.892 151.203C600.887 151.207 600.884 151.214 600.881 151.218C600.824 151.386 601.06 151.84 601.245 152.109Z" fill="black"/>
<path d="M622.779 176.618C623.017 177.089 623.594 178.197 623.824 178.309C624.161 177.913 621.675 173.062 621.343 172.899C621.321 172.925 621.306 172.973 621.306 173.007C621.406 173.679 622.228 175.523 622.779 176.618Z" fill="black"/>
<path d="M620.351 186.227C620.615 186.745 620.875 186.994 620.93 186.782C621.04 186.356 620.278 184.724 620.013 184.819C619.998 184.825 619.984 184.844 619.974 184.857C619.882 185.114 620.139 185.814 620.351 186.227Z" fill="black"/>
<path d="M637.501 212.663C637.679 213.187 638.11 214.42 638.272 214.559C638.472 214.194 636.61 208.747 636.397 208.566C636.381 208.597 636.375 208.646 636.376 208.68C636.47 209.419 637.09 211.453 637.501 212.663Z" fill="black"/>
<path d="M634.973 222.701C635.17 223.261 635.392 223.57 635.478 223.404C635.685 223.004 635.062 220.952 634.768 221.068C634.751 221.075 634.737 221.097 634.728 221.112C634.615 221.408 634.803 222.219 634.973 222.701Z" fill="black"/>
<path d="M647.292 250.896C647.403 251.488 647.603 252.526 647.695 252.82C647.767 252.408 646.732 247.072 646.64 246.776C646.636 246.801 646.631 246.835 646.626 246.86C646.697 247.54 647.021 249.446 647.292 250.896Z" fill="black"/>
<path d="M644.743 261.187C644.846 261.695 644.977 261.985 645.062 261.893C645.267 261.672 644.975 259.665 644.733 259.633C644.708 259.63 644.692 259.654 644.678 259.675C644.568 259.953 644.65 260.726 644.743 261.187Z" fill="black"/>
<path d="M649.28 301.3C649.301 301.664 649.353 301.873 649.407 301.81C649.547 301.646 649.528 300.219 649.386 300.186C649.371 300.183 649.361 300.2 649.352 300.214C649.27 300.409 649.261 300.967 649.28 301.3Z" fill="black"/>
<path d="M648.263 341.183C648.257 341.257 648.249 341.383 648.268 341.398C648.317 341.387 648.399 340.752 648.356 340.719C648.35 340.72 648.347 340.726 648.344 340.732C648.308 340.814 648.274 341.045 648.263 341.183Z" fill="black"/>
<path d="M641.834 379.646L641.874 379.511L641.884 379.438L641.844 379.571L641.834 379.646Z" fill="black"/>
</g>
<mask id="mask1_2329_25460" style="mask-type:luminance" maskUnits="userSpaceOnUse" x="45" y="0" width="607" height="608">
<path d="M446.264 590.863C443.189 591.848 439.107 593.218 436.014 594.146C432.781 595.117 428.451 596.348 425.182 597.189C422.711 597.824 419.417 598.674 416.924 599.219C407.242 601.335 406.663 601.462 401.665 602.33C395.24 603.446 392.63 603.809 388.568 604.356C383.534 605.033 379.545 605.417 376.632 605.697C376.097 605.749 371.23 606.21 365.17 606.541C363.457 606.634 361.172 606.739 359.457 606.8C357.706 606.862 355.369 606.913 353.617 606.954C350.118 607.036 348.954 607.02 341.384 606.913C339.43 606.886 336.825 606.793 334.874 606.69C330.496 606.459 324.663 606.046 320.295 605.678C317.661 605.456 314.156 605.076 311.536 604.728C308.708 604.352 304.936 603.87 302.12 603.419C298.471 602.835 293.61 602.018 289.988 601.277C282.324 599.71 272.193 597.196 264.647 595.138C257.841 593.282 248.943 590.19 242.315 587.774C237.11 585.877 230.237 583.136 225.228 580.768C215.908 576.362 203.677 570.062 194.685 565.019C189.131 561.904 182.149 557.043 176.789 553.605C169.461 548.905 160.172 541.852 153.69 536.041C148.693 531.561 141.864 525.76 137.085 521.047C131.352 515.393 123.824 507.705 118.678 501.511C109.964 491.022 100.953 480.175 89.8461 462.056C81.1995 447.951 73.7376 433.228 67.6674 418.298C64.9758 411.678 61.6873 402.722 59.5403 395.906C57.2019 388.482 54.4581 378.46 52.7295 370.872C49.4539 356.49 47.2438 336.875 45.7776 322.198C45.0051 314.463 45.1116 304.062 45.2696 296.29C45.4188 288.961 46.3425 279.218 46.803 271.902C47.2899 264.173 48.8259 253.911 50.5519 246.362C52.1462 239.391 54.0329 230.034 55.9419 223.144C57.9751 215.804 61.0648 206.117 63.6825 198.964C66.0934 192.377 69.6476 183.712 72.5875 177.343C75.762 170.466 80.3321 161.446 84.0471 154.844C87.4271 148.838 92.2183 140.985 96.0656 135.267C100.315 128.953 106.493 120.891 111.014 114.768C115.758 108.344 122.853 100.348 128.474 94.6754C137.528 85.5385 149.991 73.678 160.099 65.7225C166.332 60.8166 174.944 54.6589 181.508 50.2054C186.186 47.0309 192.72 43.2542 197.548 40.3117C205.124 35.6947 215.732 30.3603 223.88 26.8501C227.84 25.1438 233.079 22.7655 237.117 21.2545C241.038 19.787 246.255 17.7966 250.21 16.4226C253.486 15.2846 257.879 13.8354 261.213 12.8826C264.187 12.0322 268.146 10.8732 271.136 10.0784C273.874 9.3507 277.54 8.43517 280.303 7.80991C282.781 7.24906 286.086 6.49901 288.581 6.01955C292.699 5.22881 298.205 4.26039 302.342 3.57612C304.23 3.26417 306.759 2.9061 308.659 2.67281C316.147 1.75186 316.147 1.75186 320.595 1.3314C329.078 0.529808 337.623 0.213783 337.77 0.228703C339.522 0.257186 341.858 0.120872 343.61 0.0740784C347.332 -0.0242556 351.854 0.0496628 355.844 0.114767C358.231 0.153422 363.84 0.354159 369.51 0.746138C378.731 1.38361 385.624 2.291 385.692 2.30049C388.52 2.67552 392.292 3.15837 395.108 3.60935C398.75 4.19257 403.584 5.10538 407.217 5.74693C414.903 7.10394 425.008 9.69317 432.504 11.8674C439.098 13.7798 447.795 16.664 454.249 19.0071C459.441 20.8917 466.306 23.5969 471.303 25.9515C480.658 30.3596 492.946 36.6407 501.978 41.6775C507.533 44.7753 514.673 49.3869 519.88 53.0401C529.082 59.4963 542.289 68.7919 559.68 85.5331C565.485 91.1218 572.827 98.9865 578.14 105.045C582.678 110.218 588.373 117.427 592.491 122.941C601.625 135.171 610.799 149.729 618.536 164.786C623.378 174.21 630.896 189.963 637.493 210.518C639.871 217.927 642.601 227.952 644.355 235.533C646.007 242.668 647.941 252.262 648.836 259.531C649.808 267.436 651.198 277.985 651.517 285.944C651.968 297.215 652.29 312.299 651.399 323.543C650.824 330.8 649.931 340.473 648.862 347.673C647.729 355.313 646.104 365.52 644.062 372.969C640.322 386.613 634.596 404.611 629.74 417.898C627.137 425.016 622.644 434.102 619.239 440.873C616.129 447.06 611.621 455.133 608 461.036C604.03 467.51 598.641 476.12 593.955 482.096C589.083 488.308 582.904 496.866 577.555 502.671C568.69 512.291 556.532 524.862 546.649 533.433C540.709 538.583 532.498 545.13 526.08 549.671C518.261 555.203 507.561 562.215 499.248 566.971C491.253 571.545 480.251 577.052 471.854 580.839C464.338 584.225 454.013 588.043 446.264 590.863C421.596 599.25 394.453 601.729 365.686 597.271C394.453 601.729 421.596 599.25 446.264 590.863Z" fill="white"/>
</mask>
<g mask="url(#mask1_2329_25460)">
<path d="M299.801 3.9869C299.723 4.00114 299.647 4.02081 299.567 4.02623C299.657 3.99707 299.75 3.99165 299.843 3.97741C299.853 3.97605 299.864 3.97333 299.874 3.97266C299.85 3.97944 299.825 3.98215 299.801 3.9869Z" fill="white"/>
<path d="M311.517 2.37059C311.319 2.4106 310.935 2.46824 310.875 2.4601C310.89 2.43705 311.276 2.37872 311.479 2.35363C311.525 2.34821 311.57 2.33871 311.616 2.34278C311.614 2.34753 311.612 2.3516 311.517 2.37059Z" fill="white"/>
<path d="M323.721 1.16896C323.503 1.23949 322.677 1.32766 322.577 1.27747C322.577 1.27476 322.578 1.27069 322.578 1.2673C322.645 1.22525 323.011 1.17778 323.344 1.1493C323.589 1.13031 323.716 1.12759 323.758 1.14184C323.759 1.14455 323.76 1.14794 323.761 1.15065C323.748 1.16015 323.734 1.16489 323.721 1.16896Z" fill="white"/>
<path d="M336.029 0.412755C336.03 0.414111 336.031 0.417504 336.032 0.419538C335.975 0.51516 334.629 0.557884 334.531 0.46701C334.541 0.45209 334.565 0.416144 335.153 0.387661C335.719 0.363926 336.001 0.382916 336.029 0.412755Z" fill="white"/>
<path d="M348.241 0.108096C348.323 0.118947 348.339 0.125725 348.356 0.133185C348.355 0.136576 348.355 0.142005 348.354 0.145395C348.151 0.224063 346.525 0.154211 346.381 0.0897854C346.389 0.0782566 346.398 0.0667275 346.822 0.0619804C347.524 0.0579114 348.041 0.0816477 348.241 0.108096Z" fill="white"/>
<path d="M360.132 0.26487C360.425 0.286572 360.467 0.298783 360.484 0.30353C360.306 0.355071 357.959 0.17739 357.938 0.174677C358.037 0.167218 358.136 0.176709 358.236 0.179422C359.062 0.205192 359.736 0.235709 360.132 0.26487Z" fill="white"/>
<path d="M372.098 0.934515C371.635 0.916205 371.175 0.864665 370.713 0.830078L372.093 0.933837C372.095 0.933837 372.097 0.933837 372.098 0.934515Z" fill="white"/>
<path d="M269.897 12.1321C269.669 12.2358 269.36 12.324 269.382 12.2799C269.403 12.2365 269.743 12.0934 269.965 12.0439C269.993 12.0385 270.051 12.0276 270.04 12.048C270.032 12.0636 269.979 12.0948 269.897 12.1321Z" fill="white"/>
<path d="M286.248 9.18725C285.661 9.50327 284.663 9.7352 284.743 9.5365C284.805 9.38391 285.544 9.05568 286.188 8.94243C286.447 8.90581 286.549 8.92954 286.49 9.01431C286.471 9.04008 286.416 9.09705 286.248 9.18725Z" fill="white"/>
<path d="M303.551 6.84234C302.843 7.37266 301.007 7.68259 301.097 7.2567C301.15 7.00306 302.015 6.58802 303.009 6.45239C303.996 6.3527 303.702 6.70196 303.664 6.74197C303.633 6.77588 303.586 6.81521 303.551 6.84234Z" fill="white"/>
<path d="M321.379 5.12796C320.936 5.81019 318.359 6.11197 318.172 5.50366C318.073 5.18289 318.837 4.73936 320.089 4.61526C321.189 4.54541 321.574 4.82685 321.379 5.12796Z" fill="white"/>
<path d="M339.381 4.05946C339.497 4.77899 336.722 5.0584 335.759 4.42431C335.259 4.09473 335.586 3.69461 336.502 3.51286C336.78 3.45793 336.986 3.44504 337.205 3.4308C338.546 3.39214 339.326 3.7258 339.381 4.05946Z" fill="white"/>
<path d="M357.222 3.65202C357.619 4.03382 357.064 4.34103 355.957 4.3512C354.188 4.36748 352.329 3.64524 352.898 3.16238C353.174 2.92909 353.903 2.9101 354.142 2.90332C355.742 2.91553 356.906 3.3482 357.222 3.65202Z" fill="white"/>
<path d="M374.529 3.91652C375.003 4.16608 375.067 4.38038 374.698 4.49024C373.483 4.85171 369.332 3.78427 369.763 3.22072C369.893 3.0505 370.479 3.05796 370.729 3.06203C372.22 3.12984 373.832 3.54963 374.529 3.91652Z" fill="white"/>
<path d="M391.033 4.86082C391.695 5.11106 391.95 5.31383 391.717 5.40335C390.934 5.7031 385.907 4.439 386.055 3.97988C386.091 3.86799 386.541 3.89511 386.758 3.908C388.196 4.03549 390.061 4.49257 391.033 4.86082Z" fill="white"/>
<path d="M406.394 6.49268C407.069 6.70495 407.437 6.86228 407.486 6.96129C407.041 7.25087 401.774 5.7372 401.604 5.49645C401.664 5.45712 401.68 5.44627 402.07 5.49103C403.348 5.66871 405.272 6.14003 406.394 6.49268Z" fill="white"/>
<path d="M420.149 8.7797C420.682 8.93161 421.343 9.13032 421.461 9.2117C421.229 9.30325 416.263 7.92115 415.982 7.77195C416.065 7.76856 416.065 7.76856 416.24 7.80179C417.156 7.98761 418.909 8.42638 420.149 8.7797Z" fill="white"/>
<path d="M233.363 27.6674C233.101 27.8404 232.741 27.9801 232.762 27.9014C232.781 27.8254 233.172 27.5888 233.431 27.5142C233.462 27.5067 233.546 27.487 233.518 27.5359C233.503 27.5644 233.446 27.6125 233.363 27.6674Z" fill="white"/>
<path d="M253.037 23.1246C252.267 23.7011 250.942 24.1365 250.953 23.8096C250.963 23.5234 252.044 22.8378 252.967 22.6248C253.487 22.5306 253.43 22.7123 253.35 22.829C253.294 22.909 253.18 23.0168 253.037 23.1246Z" fill="white"/>
<path d="M274.366 19.335C273.27 20.3536 270.724 20.9904 270.782 20.2322C270.823 19.7066 272.268 18.7714 273.748 18.4988C274.904 18.3442 274.802 18.8216 274.56 19.1281C274.508 19.1953 274.429 19.2773 274.366 19.335Z" fill="white"/>
<path d="M296.861 16.3353C295.812 17.7391 292.045 18.4566 291.884 17.2834C291.787 16.5706 293.299 15.4767 295.323 15.1872C297.2 15.0115 297.262 15.7982 296.861 16.3353Z" fill="white"/>
<path d="M320.008 14.1556C319.404 15.8463 314.819 16.5577 313.95 15.0949C313.441 14.2363 314.829 12.9871 317.317 12.724C319.698 12.589 320.231 13.5303 320.008 14.1556Z" fill="white"/>
<path d="M343.362 12.8162C343.5 14.654 338.327 15.2807 336.612 13.6334C335.591 12.6528 336.611 11.3107 339.411 11.1147C342.191 11.055 343.31 12.1265 343.362 12.8162Z" fill="white"/>
<path d="M366.422 12.3326C367.216 13.8456 364.042 14.6207 361.031 13.6496C358.785 12.9253 357.931 11.5479 359.273 10.8155C359.954 10.4439 360.877 10.4134 361.321 10.3984C364.162 10.4412 366.014 11.5554 366.422 12.3326Z" fill="white"/>
<path d="M388.835 12.7217C389.79 13.7091 388.965 14.4354 386.955 14.3757C383.606 14.276 379.673 12.1398 380.768 11.0147C381.213 10.557 382.289 10.5637 382.749 10.5658C385.658 10.7217 388.059 11.9207 388.835 12.7217Z" fill="white"/>
<path d="M410.071 13.981C411.113 14.7405 411.113 15.3196 410.071 15.4566C407.328 15.8167 400.986 13.06 401.992 11.9444C402.271 11.6359 403.1 11.6772 403.498 11.6976C406.238 11.9648 408.991 13.1936 410.071 13.981Z" fill="white"/>
<path d="M429.875 16.1309C431.006 16.7921 431.356 17.2919 430.787 17.4357C429.072 17.8697 421.39 14.6972 422.135 13.8624C422.297 13.6807 422.869 13.7403 423.212 13.7756C425.653 14.1411 428.578 15.3727 429.875 16.1309Z" fill="white"/>
<path d="M447.499 19.1085C448.686 19.7107 449.244 20.1481 448.956 20.2505C448.088 20.5584 440.372 17.3249 440.781 16.8244C440.853 16.7376 441.23 16.8027 441.432 16.838C443.169 17.2137 445.88 18.2872 447.499 19.1085Z" fill="white"/>
<path d="M462.026 22.7276C463.052 23.2084 463.638 23.5305 463.77 23.6845C463.759 23.6953 463.745 23.7089 463.734 23.7197C462.819 23.6458 456.962 21.0193 456.562 20.6171C456.57 20.6076 456.58 20.5954 456.589 20.5859C456.681 20.5948 456.716 20.6029 456.893 20.651C458.137 21.0295 460.525 22.0236 462.026 22.7276Z" fill="white"/>
<path d="M474.455 27.3673C474.917 27.5823 474.986 27.6182 475.035 27.6447C474.784 27.5585 469.44 25.1327 469.392 25.1104L474.411 27.3476C474.424 27.353 474.442 27.3612 474.455 27.3673Z" fill="white"/>
<path d="M192.855 50.531C192.688 50.6734 192.459 50.7887 192.471 50.7243C192.483 50.6612 192.732 50.4659 192.898 50.4042C192.918 50.3981 192.98 50.3784 192.95 50.4313C192.943 50.4421 192.921 50.4747 192.855 50.531Z" fill="white"/>
<path d="M214.204 44.1955C213.434 44.9164 212.164 45.446 212.176 45.0418C212.186 44.6994 213.264 43.8394 214.148 43.5783C214.659 43.4597 214.598 43.6841 214.517 43.8286C214.46 43.929 214.346 44.0626 214.204 44.1955Z" fill="white"/>
<path d="M238.188 38.7172C236.933 40.079 234.183 41.0175 234.101 40.1122C234.038 39.4042 235.827 37.9522 237.582 37.5365C238.898 37.3066 238.732 37.9855 238.427 38.4229C238.363 38.5165 238.265 38.6338 238.188 38.7172Z" fill="white"/>
<path d="M264.111 34.1658C262.635 36.1813 258.304 37.3552 258.014 35.8185C257.814 34.7619 259.963 32.943 262.52 32.4588C264.804 32.1652 264.708 33.3499 264.111 34.1658Z" fill="white"/>
<path d="M291.421 30.5785C290.103 33.201 284.039 34.4407 283.409 32.2163C283.028 30.8654 285.209 28.8431 288.492 28.3576C291.577 28.0822 291.926 29.5735 291.421 30.5785Z" fill="white"/>
<path d="M319.498 27.9847C318.751 31.0656 311.56 32.2748 309.999 29.5811C309.074 27.9867 311.116 25.7122 315.037 25.2781C318.612 25.0916 319.797 26.7484 319.498 27.9847Z" fill="white"/>
<path d="M347.807 26.414C347.929 29.6333 340.558 30.839 337.563 28.0897C335.571 26.2601 337.243 23.5827 341.749 23.247C345.842 23.1778 347.756 25.0577 347.807 26.414Z" fill="white"/>
<path d="M375.731 25.8827C376.717 28.8998 370.423 30.1537 366.109 27.7992C362.992 26.0976 363.024 23.4664 366.173 22.5847C366.967 22.3623 367.591 22.3386 368.253 22.3135C372.634 22.3989 375.263 24.4524 375.731 25.8827Z" fill="white"/>
<path d="M402.765 26.4042C404.205 28.7574 401.082 30.1205 396.69 29.0558C391.941 27.9049 388.952 24.7013 391.176 23.1469C392.101 22.5006 393.516 22.5013 394.196 22.502C398.619 22.7617 401.87 24.9407 402.765 26.4042Z" fill="white"/>
<path d="M428.365 27.9749C429.898 29.7226 428.86 30.9249 426.002 30.7134C420.938 30.3383 414.773 26.1371 416.711 24.382C417.356 23.7981 418.656 23.8564 419.282 23.8842C423.449 24.3149 427.102 26.5352 428.365 27.9749Z" fill="white"/>
<path d="M452.219 30.624C453.812 32.0562 453.711 33.0816 451.972 33.1182C447.787 33.2071 439.299 28.1175 441.159 26.6357C441.605 26.2803 442.519 26.3691 443.065 26.4227C446.807 27.008 450.67 29.2317 452.219 30.624Z" fill="white"/>
<path d="M473.316 34.2452C474.902 35.4584 475.325 36.3075 474.394 36.4092C471.782 36.6934 462.911 31.6275 463.729 30.3193C463.912 30.0263 464.581 30.1362 465.023 30.2088C467.967 30.8693 471.644 32.9669 473.316 34.2452Z" fill="white"/>
<path d="M490.617 38.6101C492.147 39.668 492.817 40.3875 492.324 40.4445C490.923 40.6052 482.637 35.7068 482.991 34.9283C483.054 34.7906 483.448 34.8917 483.683 34.952C485.773 35.6146 488.996 37.4904 490.617 38.6101Z" fill="white"/>
<path d="M504.158 43.6153C504.861 44.0744 506.052 44.8767 506.123 45.0924C505.387 45.1622 498.593 40.7541 498.449 40.4083C498.545 40.4008 498.545 40.4008 498.76 40.4876C499.982 41.041 502.513 42.5418 504.158 43.6153Z" fill="white"/>
<path d="M172.539 72.2888C172.089 72.8042 171.347 73.2138 171.299 72.9731C171.252 72.7418 171.945 72.0412 172.511 71.8263C172.881 71.7144 172.757 71.9755 172.71 72.0582C172.682 72.1057 172.631 72.1837 172.539 72.2888Z" fill="white"/>
<path d="M197.539 64.9409C196.327 66.4776 193.856 67.5247 193.815 66.5197C193.786 65.8171 195.334 64.1712 197.032 63.6598C198.234 63.3872 198.059 64.1332 197.767 64.6167C197.705 64.7184 197.613 64.8473 197.539 64.9409Z" fill="white"/>
<path d="M225.416 58.6339C223.772 61.0733 219.277 62.5802 219.089 60.7552C218.969 59.5976 221.087 57.2674 223.924 56.5832C226.291 56.179 226.096 57.6269 225.416 58.6339Z" fill="white"/>
<path d="M255.521 53.406C253.798 56.6442 247.496 58.4515 246.648 55.9504C246.121 54.3961 248.59 51.3823 252.628 50.6031C256.05 50.1745 256.218 52.0951 255.521 53.406Z" fill="white"/>
<path d="M287.218 49.2971C285.767 53.263 277.793 55.2215 275.991 52.0538C274.778 49.9203 277.76 46.4793 282.589 45.7475C286.564 45.4071 287.941 47.3222 287.218 49.2971Z" fill="white"/>
<path d="M319.86 46.346C319.048 50.8375 309.522 52.8313 306.623 49.1164C304.642 46.5787 307.514 42.6867 313.278 42.0316C318.4 41.7793 320.21 44.4031 319.86 46.346Z" fill="white"/>
<path d="M352.65 44.5867C352.731 49.5603 342.306 51.3894 338.164 47.1284C335.638 44.5297 337.33 40.1169 344.183 39.5845C349.966 39.5059 352.615 42.462 352.65 44.5867Z" fill="white"/>
<path d="M384.975 44.0351C385.995 48.7077 376.986 50.654 371.205 47.0102C366.702 44.1721 367.418 39.8061 372.574 38.6681C373.428 38.4796 374.227 38.4464 374.867 38.4199C381.026 38.5617 384.486 41.7884 384.975 44.0351Z" fill="white"/>
<path d="M416.248 44.7058C417.982 48.8602 411.869 50.8934 405.348 48.332C399.101 45.8784 396.971 40.8681 401.419 39.0899C402.691 38.5813 404.065 38.5772 404.886 38.5752C411.121 38.9645 415.284 42.3946 416.248 44.7058Z" fill="white"/>
<path d="M445.746 46.5835C447.788 49.9574 444.419 51.8983 438.944 50.5019C431.905 48.7068 426.776 42.8787 430.37 40.7581C431.505 40.088 433.007 40.1498 433.904 40.1864C439.784 40.8177 444.369 44.3076 445.746 46.5835Z" fill="white"/>
<path d="M473.04 49.6704C475.051 52.2631 473.863 53.9429 470.336 53.4946C463.788 52.6625 455.553 45.7507 458.587 43.6341C459.406 43.0631 460.707 43.1838 461.484 43.2564C466.671 44.0932 471.364 47.5112 473.04 49.6704Z" fill="white"/>
<path d="M497.18 53.8767C499.05 55.8969 499.066 57.296 497.218 57.2797C492.634 57.2383 482.861 49.9155 484.769 47.9522C485.231 47.4775 486.197 47.6301 486.836 47.7312C490.922 48.6745 495.345 51.893 497.18 53.8767Z" fill="white"/>
<path d="M516.897 58.9088C518.588 60.535 519.128 61.656 518.273 61.7638C515.837 62.071 506.033 54.6194 507.23 53.3709C507.449 53.143 508.027 53.2861 508.373 53.3715C511.261 54.3135 515.096 57.1767 516.897 58.9088Z" fill="white"/>
<path d="M532.312 64.6633C533.815 66.0074 534.545 66.9168 534.17 66.9785C533.086 67.1582 524.873 60.614 525.203 59.8334C525.326 59.7839 525.387 59.7954 525.743 59.9338C527.594 60.8004 530.698 63.2208 532.312 64.6633Z" fill="white"/>
<path d="M543.434 71.016C544.062 71.5551 545.143 72.4971 545.327 72.7493C544.76 72.5818 538.901 67.5146 538.669 67.2148C538.73 67.2345 538.807 67.2745 538.86 67.3105C539.794 67.9744 541.961 69.7505 543.434 71.016Z" fill="white"/>
<path d="M132.163 106.75C132.067 106.887 131.921 106.992 131.915 106.929C131.91 106.868 132.055 106.682 132.168 106.625C132.23 106.601 132.214 106.653 132.205 106.677C132.194 106.703 132.179 106.727 132.163 106.75Z" fill="white"/>
<path d="M155.355 97.8203C154.587 98.9881 153.005 99.8799 152.867 99.2234C152.747 98.6531 153.905 97.2255 155.027 96.7929C155.838 96.5528 155.713 97.1591 155.511 97.5551C155.468 97.6379 155.405 97.7436 155.355 97.8203Z" fill="white"/>
<path d="M183.409 89.6323C182.013 91.9916 178.49 93.5677 178.099 92.0072C177.8 90.8096 179.871 88.3458 182.202 87.6337C184.1 87.2112 184.05 88.5479 183.409 89.6323Z" fill="white"/>
<path d="M214.738 82.6003C212.972 86.1037 206.955 88.2114 206.266 85.5672C205.828 83.884 208.287 80.5386 212.145 79.5939C215.413 79.046 215.47 81.1469 214.738 82.6003Z" fill="white"/>
<path d="M248.555 76.7833C246.753 81.304 238.529 83.7664 236.975 80.2501C235.9 77.8175 239.198 73.7594 244.174 72.7835C248.749 72.224 249.289 74.94 248.555 76.7833Z" fill="white"/>
<path d="M284.217 72.2226C282.687 77.7666 272.288 80.4372 269.577 75.983C267.912 73.248 270.884 68.2051 277.689 67.156C283.6 66.665 284.83 70.0036 284.217 72.2226Z" fill="white"/>
<path d="M320.831 68.9737C319.951 75.1796 307.61 77.8889 303.682 72.7382C300.96 69.1704 304.529 63.7437 312.048 62.8682C318.747 62.5556 321.216 66.2502 320.831 68.9737Z" fill="white"/>
<path d="M357.683 67.065C357.687 73.6439 345.134 76.4223 339.284 71.1374C334.837 67.1199 337.917 60.6564 346.691 59.9524C354.27 59.8683 357.682 64.0614 357.683 67.065Z" fill="white"/>
<path d="M393.986 66.5219C394.975 73.3029 383.132 76.023 375.62 70.7401C369.579 66.492 371.441 59.8311 378.997 58.6606C379.617 58.5643 380.456 58.5222 381.084 58.4951C389.205 58.702 393.517 63.3135 393.986 66.5219Z" fill="white"/>
<path d="M428.883 67.3365C430.772 73.8666 420.402 76.428 412.072 71.489C405.311 67.4803 404.699 61.0032 410.903 59.1131C412.37 58.6662 413.533 58.6601 414.763 58.6533C422.923 59.1857 427.933 64.0515 428.883 67.3365Z" fill="white"/>
<path d="M461.769 69.5015C464.099 74.9682 457.72 77.5683 449.797 74.383C441.331 70.9799 437.493 63.3546 443.063 61.0082C444.583 60.368 446.276 60.4324 447.287 60.4704C454.985 61.3215 460.39 66.264 461.769 69.5015Z" fill="white"/>
<path d="M492.005 72.9804C494.336 77.204 491.289 79.5505 485.485 78.0022C477.061 75.7548 470.012 67.3889 474.227 64.6424C475.489 63.8204 477.206 63.9744 478.231 64.0659C484.95 65.1747 490.33 69.9463 492.005 72.9804Z" fill="white"/>
<path d="M518.659 77.6784C520.879 81.0028 519.858 82.9857 516.284 82.2913C509.584 80.9885 500.781 72.0978 503.726 69.6075C504.529 68.928 505.803 69.124 506.646 69.2529C511.875 70.4871 516.819 74.923 518.659 77.6784Z" fill="white"/>
<path d="M540.479 83.3077C542.502 85.9702 542.495 87.6357 540.464 87.2689C535.884 86.4422 526.892 77.3839 529.01 75.7299C529.435 75.3983 530.208 75.5841 530.671 75.6953C534.387 76.9356 538.644 80.8934 540.479 83.3077Z" fill="white"/>
<path d="M557.526 89.7361C559.217 91.7773 559.767 93.1249 558.862 93.0123C556.291 92.6915 547.767 83.931 549.158 83.0399C549.343 82.9212 549.65 83.0372 549.975 83.1592C552.38 84.3128 555.838 87.6995 557.526 89.7361Z" fill="white"/>
<path d="M569.763 96.7946C570.432 97.5596 571.559 98.8976 571.592 99.2618C571.584 99.2706 571.571 99.2821 571.562 99.2909C570.752 99.1729 564.288 92.3072 564.205 91.4751C564.214 91.4669 564.225 91.4554 564.234 91.4473C564.324 91.4608 564.359 91.4805 564.537 91.5944C565.848 92.5581 568.383 95.2151 569.763 96.7946Z" fill="white"/>
<path d="M115.752 136.647C115.557 137.024 115.182 137.319 115.125 137.14C115.075 136.981 115.364 136.461 115.684 136.299C115.888 136.219 115.849 136.423 115.794 136.557C115.783 136.585 115.766 136.621 115.752 136.647Z" fill="white"/>
<path d="M141.232 126.891C140.401 128.587 138.271 129.862 137.881 128.897C137.542 128.06 138.885 125.995 140.448 125.386C141.673 125.028 141.644 126.051 141.232 126.891Z" fill="white"/>
<path d="M171.944 117.981C170.558 121.13 166.158 123.195 165.313 121.092C164.664 119.476 166.93 116.197 169.905 115.277C172.509 114.705 172.538 116.632 171.944 117.981Z" fill="white"/>
<path d="M206.233 110.336C204.524 114.88 197.168 117.558 195.876 114.105C195.05 111.899 197.659 107.557 202.434 106.373C206.542 105.697 206.945 108.445 206.233 110.336Z" fill="white"/>
<path d="M243.212 104.025C241.481 109.812 231.541 112.903 229.219 108.378C227.753 105.523 230.792 100.098 237.303 98.8037C242.948 98.1268 243.923 101.647 243.212 104.025Z" fill="white"/>
<path d="M282.193 99.0918C280.706 106.126 268.206 109.466 264.593 103.793C262.345 100.262 265.596 93.8042 273.847 92.5116C280.679 91.9602 282.84 96.0272 282.193 99.0918Z" fill="white"/>
<path d="M322.3 95.595C321.36 103.789 306.577 107.171 301.488 100.356C298.025 95.7191 302.199 88.7103 311.378 87.6212C319.585 87.2563 322.706 92.0645 322.3 95.595Z" fill="white"/>
<path d="M362.764 93.5782C362.654 102.151 347.116 105.758 339.988 98.8652C334.5 93.5579 338.358 85.0551 349.24 84.1572C358.652 84.0738 362.814 89.6164 362.764 93.5782Z" fill="white"/>
<path d="M402.481 93.0654C403.296 101.97 388.413 105.564 379.402 98.6392C372.058 92.9948 374.716 84.1468 384.224 82.5918C385.002 82.4643 386.055 82.4087 386.843 82.3721C396.98 82.6549 402.09 88.795 402.481 93.0654Z" fill="white"/>
<path d="M440.626 94.0469C442.32 102.738 428.982 106.197 419.003 99.6553C410.414 94.0252 410.866 84.6841 419.822 82.7147C421.241 82.4028 422.57 82.3926 423.638 82.3838C433.924 83.0809 439.764 89.6239 440.626 94.0469Z" fill="white"/>
<path d="M476.141 96.4453C478.36 104.001 468.865 107.325 459.208 102.374C449.304 97.2958 446.771 87.3566 454.765 84.9396C456.452 84.4296 457.81 84.4771 459.247 84.528C468.803 85.613 474.879 92.1499 476.141 96.4453Z" fill="white"/>
<path d="M508.763 100.255C511.158 106.448 505.277 109.445 497.323 106.084C487.612 101.981 482.379 91.8272 488.575 89.1078C490.187 88.3998 492.004 88.5571 493.091 88.6514C501.344 90.0416 507.224 96.2733 508.763 100.255Z" fill="white"/>
<path d="M537.455 105.366C539.794 110.286 537.04 112.87 531.562 110.897C523.103 107.849 515.928 97.135 520.75 94.7499C521.887 94.1877 523.286 94.3965 524.121 94.5213C530.491 96.0533 535.754 101.785 537.455 105.366Z" fill="white"/>
<path d="M560.923 111.466C562.964 115.185 562.225 117.337 559.202 116.471C553.179 114.745 544.987 103.947 548.107 101.845C548.766 101.401 549.728 101.627 550.303 101.762C554.792 103.289 559.215 108.356 560.923 111.466Z" fill="white"/>
<path d="M579.209 118.396C580.906 121.195 581.045 122.915 579.54 122.487C575.959 121.466 568.258 111.15 570.28 110.084C570.582 109.926 570.957 110.064 571.355 110.21C574.191 111.601 577.655 115.834 579.209 118.396Z" fill="white"/>
<path d="M592.459 126.092C593.789 128.143 594.325 129.437 593.793 129.31C592.33 128.96 585.867 120.098 586.514 119.328C586.606 119.22 586.789 119.334 587.003 119.466C588.572 120.652 591.138 124.054 592.459 126.092Z" fill="white"/>
<path d="M601.822 136.25C601.918 136.396 602.014 136.541 602.105 136.69C601.881 136.485 597.343 129.749 597.098 129.345C597.132 129.377 597.17 129.427 597.198 129.465C597.288 129.591 597.377 129.717 597.466 129.844L601.723 136.099C601.753 136.145 601.793 136.204 601.822 136.25Z" fill="white"/>
<path d="M103.195 169.575C102.953 170.235 102.354 170.743 102.194 170.425C102.039 170.116 102.457 169.216 102.961 168.955C103.333 168.811 103.321 169.231 103.195 169.575Z" fill="white"/>
<path d="M130.424 159.188C129.684 161.303 127.21 162.87 126.531 161.654C125.941 160.598 127.261 158.027 129.138 157.287C130.634 156.856 130.791 158.139 130.424 159.188Z" fill="white"/>
<path d="M163.291 149.693C162.084 153.514 157.055 155.98 155.712 153.41C154.675 151.424 156.926 147.437 160.404 146.35C163.323 145.718 163.85 147.924 163.291 149.693Z" fill="white"/>
<path d="M199.878 141.569C198.478 146.705 190.802 149.919 188.47 146.345C186.637 143.533 189.693 138.117 194.979 136.79C199.705 136.024 200.492 139.315 199.878 141.569Z" fill="white"/>
<path d="M239.416 134.861C237.859 141.923 226.822 145.482 223.669 139.938C221.718 136.507 224.738 130.039 232.144 128.549C238.278 127.827 240.089 131.806 239.416 134.861Z" fill="white"/>
<path d="M281.084 129.631C279.751 137.94 265.638 141.849 261.214 135.135C258.414 130.885 261.756 123.158 271.16 121.663C278.986 121.048 281.674 125.952 281.084 129.631Z" fill="white"/>
<path d="M324.061 125.938C323.133 135.728 306.226 139.747 300.259 131.596C296.521 126.49 299.977 117.556 311.293 116.189C320.775 115.787 324.468 121.648 324.061 125.938Z" fill="white"/>
<path d="M367.382 123.844C367.116 134.496 349.394 138.795 341.044 130.233C334.687 123.715 339.19 113.308 351.825 112.239C362.756 112.166 367.502 118.981 367.382 123.844Z" fill="white"/>
<path d="M410.228 123.394C410.758 134.509 392.918 139.027 382.564 130.4C373.348 122.722 377.847 111.059 390.456 109.942C390.936 109.899 391.579 109.887 392.06 109.864C404.164 110.228 409.971 117.995 410.228 123.394Z" fill="white"/>
<path d="M451.016 124.537C452.407 136.18 434.553 140.177 423.329 130.734C413.368 122.354 417.07 110.363 429.823 109.701C430.31 109.676 430.961 109.689 431.45 109.685C443.825 110.553 450.341 118.893 451.016 124.537Z" fill="white"/>
<path d="M488.432 127.111C490.331 137.196 477.526 141.06 466.333 133.778C455.51 126.736 455.007 114.595 465.45 112.48C467 112.166 468.459 112.214 469.632 112.253C480.917 113.564 487.419 121.731 488.432 127.111Z" fill="white"/>
<path d="M522.787 131.158C524.993 139.837 515.709 143.093 505.95 137.062C495.998 130.911 493.389 119.606 501.374 117.232C503.07 116.727 504.437 116.841 505.885 116.962C515.473 118.609 521.541 126.255 522.787 131.158Z" fill="white"/>
<path d="M552.953 136.553C555.109 143.281 550.091 146.204 543.011 142.346C533.781 137.316 529.216 125.598 535.719 123.632C536.957 123.257 537.994 123.409 539.092 123.569C546.352 125.345 551.568 132.231 552.953 136.553Z" fill="white"/>
<path d="M577.71 143.009C579.613 148.051 577.511 150.594 573.212 148.451C565.998 144.855 560.162 133.129 564.774 131.495C565.556 131.218 566.267 131.38 567.019 131.553C572.071 133.303 576.312 139.305 577.71 143.009Z" fill="white"/>
<path d="M597.12 150.401C598.669 154.053 598.226 156.119 596.09 155.207C591.475 153.236 585.176 141.844 587.97 140.521C588.395 140.32 588.836 140.478 589.302 140.645C592.525 142.257 595.814 147.32 597.12 150.401Z" fill="white"/>
<path d="M611.13 158.571C612.368 161.259 612.592 162.83 611.674 162.392C609.321 161.269 603.73 150.81 605.31 150.486C605.462 150.455 605.682 150.587 605.843 150.683C607.616 152.059 610.002 156.124 611.13 158.571Z" fill="white"/>
<path d="M619.68 167.339C620.182 168.37 620.795 169.679 620.863 170.06C620.852 170.067 620.836 170.076 620.825 170.084C620.188 169.443 616.554 162.347 616.406 161.455C616.418 161.449 616.434 161.44 616.446 161.434C616.488 161.476 616.539 161.538 616.575 161.585C617.286 162.619 618.818 165.572 619.68 167.339Z" fill="white"/>
<path d="M94.6515 205.241C94.465 206.042 93.8045 206.651 93.5475 206.259C93.3006 205.882 93.6621 204.799 94.2433 204.493C94.6841 204.326 94.7472 204.83 94.6515 205.241Z" fill="white"/>
<path d="M123.144 194.393C122.606 196.767 120.023 198.501 119.079 197.121C118.26 195.924 119.387 193.046 121.409 192.239C123.047 191.774 123.41 193.219 123.144 194.393Z" fill="white"/>
<path d="M157.516 184.485C156.635 188.723 151.394 191.414 149.618 188.54C148.241 186.313 150.244 181.897 153.94 180.728C157.261 180.02 157.895 182.656 157.516 184.485Z" fill="white"/>
<path d="M195.867 175.996C194.778 181.926 186.764 185.429 183.79 181.275C181.473 178.038 184.181 172.028 190.02 170.546C195.159 169.727 196.334 173.454 195.867 175.996Z" fill="white"/>
<path d="M237.195 169.006C236.045 176.508 225.243 180.591 220.916 175.161C217.599 170.998 221.152 163.399 228.869 161.825C235.487 161.062 237.722 165.565 237.195 169.006Z" fill="white"/>
<path d="M280.852 163.557C279.773 172.719 266.038 177.256 260.153 170.395C255.665 165.163 259.861 156.024 269.731 154.431C278.22 153.782 281.345 159.377 280.852 163.557Z" fill="white"/>
<path d="M325.75 159.722C324.932 170.154 308.294 174.974 301.025 166.885C295.355 160.576 299.988 150.049 311.834 148.591C322.067 148.18 326.132 154.853 325.75 159.722Z" fill="white"/>
<path d="M371.234 157.567C370.802 169.62 351.573 174.5 342.657 164.82C335.744 157.314 340.66 145.37 354.419 144.176C366.349 144.122 371.434 151.974 371.234 157.567Z" fill="white"/>
<path d="M416.2 157.151C416.319 170.21 396.951 175.358 385.723 165.252C375.814 156.333 381.084 142.795 394.967 141.505C395.498 141.455 396.208 141.442 396.74 141.415C410.067 141.846 416.143 150.877 416.2 157.151Z" fill="white"/>
<path d="M459.34 158.461C460.112 172.555 440.015 177.292 427.715 165.916C416.894 155.908 421.773 141.554 436.273 140.739C436.828 140.708 437.57 140.724 438.126 140.717C452.143 141.735 458.969 151.706 459.34 158.461Z" fill="white"/>
<path d="M497.899 161.119C499.113 173.417 483.075 177.567 471.498 167.949C460.697 158.976 462.76 145.256 475.117 143.882C476.074 143.776 477.364 143.806 478.326 143.835C490.796 145.317 497.278 154.834 497.899 161.119Z" fill="white"/>
<path d="M533.331 165.278C534.79 175.568 523.083 179.014 513.128 171.224C502.768 163.118 503.176 149.91 513.809 149.143C514.599 149.086 515.659 149.164 516.449 149.228C526.78 151.035 532.54 159.701 533.331 165.278Z" fill="white"/>
<path d="M564.695 170.889C566.215 178.948 559.558 182.085 551.976 176.882C542.637 170.475 540.352 157.555 548.325 156.25C549.391 156.076 550.406 156.22 551.222 156.335C558.986 158.268 563.774 166.009 564.695 170.889Z" fill="white"/>
<path d="M590.456 177.602C591.863 183.703 588.712 186.439 583.846 183.34C576.306 178.541 572.57 165.673 578.443 164.735C579.145 164.623 579.837 164.778 580.394 164.902C585.749 166.788 589.501 173.464 590.456 177.602Z" fill="white"/>
<path d="M610.721 185.319C611.902 189.747 610.775 192.025 608.156 190.507C602.996 187.518 598.503 174.952 602.363 174.307C602.779 174.238 603.213 174.389 603.561 174.512C606.975 176.252 609.803 181.879 610.721 185.319Z" fill="white"/>
<path d="M625.31 193.818C626.19 196.778 626.093 198.528 625.075 198.073C622.434 196.891 618.059 185.408 620.094 185.001C620.29 184.962 620.518 185.095 620.702 185.202C622.551 186.669 624.509 191.124 625.31 193.818Z" fill="white"/>
<path d="M634.273 203.01C634.615 204.074 635.16 205.895 634.969 206.139C634.279 206.048 630.982 196.953 631.44 196.407C631.511 196.417 631.534 196.44 631.646 196.577C632.396 197.713 633.634 201.022 634.273 203.01Z" fill="white"/>
<path d="M90.3843 243.335C90.3029 244.085 89.7387 244.648 89.4403 244.277C89.1528 243.919 89.3698 242.903 89.8974 242.623C90.3029 242.471 90.4264 242.948 90.3843 243.335Z" fill="white"/>
<path d="M119.613 232.212C119.335 234.641 116.886 236.386 115.759 234.957C114.757 233.686 115.559 230.793 117.579 229.976C119.21 229.52 119.75 231.009 119.613 232.212Z" fill="white"/>
<path d="M154.876 222.054C154.409 226.291 149.724 229.072 147.395 226.495C145.413 224.302 146.931 219.313 150.817 218.068C153.995 217.402 155.104 219.998 154.876 222.054Z" fill="white"/>
<path d="M194.109 213.366C193.473 219.486 185.675 223.052 182.356 218.739C179.742 215.343 181.983 209.106 187.768 207.618C192.905 206.814 194.383 210.716 194.109 213.366Z" fill="white"/>
<path d="M236.488 206.197C235.756 214.008 225.113 218.213 220.449 212.534C216.824 208.123 219.935 200.146 227.646 198.551C234.309 197.802 236.828 202.571 236.488 206.197Z" fill="white"/>
<path d="M281.253 200.61C280.483 210.215 266.818 214.931 260.66 207.717C255.835 202.065 259.474 192.506 269.666 190.836C278.249 190.202 281.608 196.169 281.253 200.61Z" fill="white"/>
<path d="M327.287 196.68C326.563 207.968 310.117 212.95 302.502 204.188C296.555 197.346 300.761 186.259 313.046 184.718C323.423 184.325 327.621 191.476 327.287 196.68Z" fill="white"/>
<path d="M373.67 194.46C373.083 207.317 354.241 212.33 345.274 202.015C338.289 193.979 342.903 181.522 357.011 180.264C368.951 180.238 373.94 188.55 373.67 194.46Z" fill="white"/>
<path d="M419.409 193.989C419.073 207.331 400.054 212.648 389.482 202.355C380.197 193.314 384.655 178.472 400.809 177.619C413.912 178.074 419.573 187.465 419.409 193.989Z" fill="white"/>
<path d="M463.178 195.239C463.131 209.283 443.734 214.11 432.656 202.834C422.93 192.934 427.169 177.48 443.719 177.236C457.179 178.249 463.201 188.373 463.178 195.239Z" fill="white"/>
<path d="M503.341 198.011C503.584 210.685 487.461 215.079 476.801 205.246C466.092 195.367 470.121 180.248 483.537 179.968C484.028 179.958 484.682 180 485.172 180.014C497.494 181.514 503.215 191.441 503.341 198.011Z" fill="white"/>
<path d="M539.923 202.286C540.38 213.019 528.314 216.73 519.099 208.691C509.378 200.212 510.955 186.284 521.735 185.405C522.533 185.34 523.605 185.414 524.404 185.476C534.692 187.311 539.672 196.41 539.923 202.286Z" fill="white"/>
<path d="M572.255 208.046C572.904 217.077 564.998 220.157 557.669 213.728C549.128 206.237 549.397 193.033 558.099 192.642C558.708 192.615 559.521 192.72 560.124 192.803C567.876 194.767 571.884 202.899 572.255 208.046Z" fill="white"/>
<path d="M598.809 214.943C599.48 221.67 595.262 224.514 590.453 220.58C583.636 215.005 582.009 202.509 587.965 201.479C588.718 201.349 589.423 201.503 589.989 201.627C595.348 203.548 598.373 210.57 598.809 214.943Z" fill="white"/>
<path d="M619.644 222.843C620.262 227.786 618.438 230.164 615.66 228.035C610.904 224.39 608.494 212.125 612.395 211.423C612.853 211.341 613.293 211.491 613.647 211.611C617.035 213.374 619.193 219.24 619.644 222.843Z" fill="white"/>
<path d="M634.701 231.582C635.197 234.916 634.649 236.803 633.429 235.971C630.744 234.139 628.199 222.85 630.369 222.399C630.601 222.351 630.835 222.484 631.024 222.591C632.862 224.087 634.281 228.749 634.701 231.582Z" fill="white"/>
<path d="M643.937 241.001C644.317 243.247 644.308 244.57 643.915 244.216C642.932 243.333 641.053 234.436 641.799 234.195C641.875 234.171 641.964 234.275 642.035 234.359C642.767 235.51 643.588 238.936 643.937 241.001Z" fill="white"/>
<path d="M90.7416 283.489C90.747 284.068 90.3503 284.5 90.0777 284.213C89.8112 283.931 89.8871 283.141 90.2852 282.925C90.5951 282.812 90.7389 283.186 90.7416 283.489Z" fill="white"/>
<path d="M120.075 272.307C120.058 274.532 117.977 276.109 116.801 274.787C115.773 273.632 116.236 270.933 117.981 270.217C119.44 269.817 120.084 271.198 120.075 272.307Z" fill="white"/>
<path d="M155.473 262.088C155.395 266.096 151.251 268.694 148.855 266.235C146.796 264.123 147.779 259.377 151.322 258.226C154.249 257.624 155.511 260.122 155.473 262.088Z" fill="white"/>
<path d="M194.956 253.331C194.784 259.075 188.242 262.573 184.508 258.917C181.302 255.777 182.904 249.03 188.479 247.576C193.086 246.87 195.04 250.516 194.956 253.331Z" fill="white"/>
<path d="M237.611 246.106C237.314 253.833 227.299 257.957 222.519 252.321C219.074 248.258 220.772 239.965 228.663 238.308C235.069 237.606 237.752 242.445 237.611 246.106Z" fill="white"/>
<path d="M282.427 240.477C282 249.854 269.237 254.439 263.194 247.387C258.836 242.3 261.045 232.289 271.092 230.612C279.247 230.032 282.63 236.032 282.427 240.477Z" fill="white"/>
<path d="M328.503 236.499C327.948 247.411 312.653 252.236 305.454 243.771C300.256 237.659 302.944 226.073 314.983 224.528C324.746 224.186 328.767 231.322 328.503 236.499Z" fill="white"/>
<path d="M374.956 234.222C374.285 246.545 356.806 251.388 348.616 241.521C342.701 234.395 345.802 221.391 359.547 220.129C370.705 220.134 375.275 228.373 374.956 234.222Z" fill="white"/>
<path d="M420.648 233.672C419.925 246.582 402.695 251.597 393.132 241.681C384.871 233.116 389.353 218.498 404.016 217.685C416.081 218.138 421.005 227.307 420.648 233.672Z" fill="white"/>
<path d="M464.287 234.805C463.552 248.065 446.296 252.542 436.729 241.954C428.469 232.813 432.963 217.951 447.633 217.694C459.722 218.64 464.649 228.269 464.287 234.805Z" fill="white"/>
<path d="M505.045 237.552C504.369 250.346 488.432 253.988 479.594 243.368C471.959 234.192 476.104 219.987 489.658 220.322C500.826 221.72 505.379 231.239 505.045 237.552Z" fill="white"/>
<path d="M542.515 241.907C541.985 252.999 529.438 256.204 521.538 247.266C513.748 238.452 517.679 225.116 528.009 225.313C528.394 225.32 528.905 225.379 529.29 225.408C538.873 227.153 542.793 236.107 542.515 241.907Z" fill="white"/>
<path d="M575.409 247.721C575.083 256.901 566.383 259.664 560.149 252.567C553.227 244.687 555.887 231.987 564.335 232.583C564.631 232.604 565.022 232.675 565.316 232.714C572.578 234.59 575.59 242.619 575.409 247.721Z" fill="white"/>
<path d="M602.435 254.696C602.285 261.715 597.354 264.356 593.013 259.741C587.325 253.693 587.98 241.487 594.002 241.347C594.406 241.338 594.944 241.446 595.34 241.53C600.389 243.375 602.528 250.34 602.435 254.696Z" fill="white"/>
<path d="M623.589 262.663C623.554 267.817 621.137 270.094 618.519 267.441C614.297 263.162 614.068 251.336 618.209 251.423C618.466 251.429 618.801 251.536 619.046 251.617C622.22 253.304 623.614 259.091 623.589 262.663Z" fill="white"/>
<path d="M638.896 271.48C638.925 275.016 637.959 276.832 636.695 275.614C634.033 273.049 633.39 262.273 635.912 262.511C636.057 262.524 636.234 262.622 636.361 262.692C638.07 264.12 638.872 268.691 638.896 271.48Z" fill="white"/>
<path d="M648.29 280.952C648.342 283.082 648.103 284.347 647.709 284.026C646.739 283.236 646.094 274.796 646.982 274.519C647.075 274.49 647.156 274.582 647.228 274.662C647.88 275.731 648.241 278.984 648.29 280.952Z" fill="white"/>
<path d="M651.767 290.946C651.807 291.925 651.826 292.524 651.824 292.728C651.749 292.4 651.554 287.603 651.562 287.17C651.567 287.19 651.573 287.217 651.578 287.238C651.632 287.893 651.723 289.86 651.767 290.946Z" fill="white"/>
<path d="M95.7832 323.796C95.8178 324.081 95.6374 324.29 95.4773 324.151C95.3214 324.016 95.3173 323.63 95.5153 323.522C95.6543 323.472 95.7629 323.625 95.7832 323.796Z" fill="white"/>
<path d="M124.571 312.772C124.721 314.396 123.356 315.582 122.289 314.755C121.263 313.96 121.362 311.771 122.756 311.198C123.88 310.89 124.494 311.933 124.571 312.772Z" fill="white"/>
<path d="M159.425 302.662C159.64 305.989 156.282 308.154 154.062 306.12C152.146 304.366 152.644 300.415 155.595 299.453C158.061 298.948 159.319 301.026 159.425 302.662Z" fill="white"/>
<path d="M198.294 293.993C198.477 298.924 192.956 301.942 189.476 298.812C186.466 296.105 187.459 290.278 192.27 289.018C196.274 288.407 198.203 291.56 198.294 293.993Z" fill="white"/>
<path d="M240.309 286.829C240.373 293.364 232.476 297.098 227.699 292.793C223.552 289.057 225.173 281.376 232.008 279.935C237.682 279.317 240.278 283.594 240.309 286.829Z" fill="white"/>
<path d="M284.451 281.234C284.31 289.532 273.07 293.616 267.512 287.388C263.057 282.395 265.684 273.8 274.047 272.397C281.336 271.883 284.519 277.256 284.451 281.234Z" fill="white"/>
<path d="M329.722 277.26C329.305 287.133 316.03 291.354 309.432 283.711C304.73 278.265 306.95 267.941 317.614 266.566C326.291 266.267 329.918 272.639 329.722 277.26Z" fill="white"/>
<path d="M375.371 274.945C374.637 286.051 359.479 290.274 352.202 281.401C346.497 274.445 350.555 263.435 361.911 262.383C371.768 262.396 375.716 269.738 375.371 274.945Z" fill="white"/>
<path d="M420.187 274.308C419.143 286.198 402.933 290.137 395.409 280.33C389.498 272.627 394.064 260.95 406.167 260.267C416.651 260.671 420.677 268.721 420.187 274.308Z" fill="white"/>
<path d="M463.257 275.331C462.036 286.738 446.985 290.629 439.22 281.544C432.411 273.578 436.86 260.613 449.573 260.378C460.027 261.208 463.869 269.622 463.257 275.331Z" fill="white"/>
<path d="M503.749 277.987C502.389 289.035 488.339 292.219 481.312 283.072C475.148 275.049 479.538 262.611 491.347 262.889C501.034 264.115 504.43 272.456 503.749 277.987Z" fill="white"/>
<path d="M541.126 282.265C539.81 291.926 528.529 294.743 522.266 286.975C516.109 279.339 519.951 266.958 530.673 267.741C539.038 269.28 541.821 277.16 541.126 282.265Z" fill="white"/>
<path d="M574.196 288.075C573.047 296.28 564.878 298.762 559.866 292.429C554.268 285.355 557.817 273.941 565.451 274.468C565.719 274.486 566.072 274.551 566.338 274.586C572.824 276.274 574.838 283.49 574.196 288.075Z" fill="white"/>
<path d="M601.162 294.973C600.235 301.615 595.016 303.722 591.534 298.859C587.208 292.82 589.749 282.366 595.365 283.106C595.551 283.13 595.794 283.196 595.978 283.235C600.453 284.886 601.703 291.093 601.162 294.973Z" fill="white"/>
<path d="M622.343 302.895C621.679 307.789 618.882 309.696 616.696 306.745C613.365 302.25 615.002 292.028 618.912 292.901C619.031 292.928 619.183 292.99 619.3 293.029C622.116 294.543 622.775 299.709 622.343 302.895Z" fill="white"/>
<path d="M637.612 311.597C637.195 314.845 635.928 316.366 634.845 314.918C632.829 312.222 633.593 303.634 635.83 303.846C635.96 303.858 636.121 303.942 636.236 304.004C637.698 305.249 637.92 309.194 637.612 311.597Z" fill="white"/>
<path d="M647.058 320.986C646.834 322.891 646.387 323.952 646.018 323.456C645.137 322.27 645.648 315.38 646.599 315.612C646.656 315.626 646.712 315.692 646.752 315.735C647.282 316.636 647.25 319.348 647.058 320.986Z" fill="white"/>
<path d="M650.626 330.904C650.536 331.782 650.462 332.246 650.407 332.284C650.302 331.963 650.624 328.206 650.777 327.961C650.79 327.981 650.798 328.012 650.801 328.035C650.833 328.542 650.717 330.018 650.626 330.904Z" fill="white"/>
<path d="M132.831 352.2C133.01 353.124 132.269 353.801 131.593 353.331C130.943 352.879 130.881 351.634 131.67 351.306C132.318 351.13 132.739 351.723 132.831 352.2Z" fill="white"/>
<path d="M166.601 342.363C166.962 344.776 164.714 346.454 162.842 345.168C161.028 343.922 161.048 340.672 163.397 339.901C165.295 339.513 166.413 341.107 166.601 342.363Z" fill="white"/>
<path d="M204.173 333.931C204.591 337.949 200.212 340.409 197.18 337.859C194.546 335.644 195.037 330.886 198.932 329.861C202.203 329.365 203.966 331.942 204.173 333.931Z" fill="white"/>
<path d="M244.674 326.959C244.989 332.349 238.62 335.431 234.502 331.88C230.907 328.78 231.918 322.42 237.515 321.233C242.193 320.727 244.518 324.277 244.674 326.959Z" fill="white"/>
<path d="M287.253 321.494C287.34 328.159 278.991 331.689 273.92 327.133C269.48 323.143 271.138 315.322 278.392 314.101C284.432 313.678 287.21 318.169 287.253 321.494Z" fill="white"/>
<path d="M331.042 317.584C330.777 325.895 319.738 329.452 314.168 323.022C310.172 318.408 311.901 309.671 320.798 308.518C328.072 308.272 331.167 313.671 331.042 317.584Z" fill="white"/>
<path d="M375.101 315.27C374.402 324.569 361.782 328.125 355.81 320.706C351.503 315.356 353.857 305.599 363.969 304.657C372.196 304.672 375.431 310.872 375.101 315.27Z" fill="white"/>
<path d="M418.385 314.562C417.24 324.434 403.801 327.729 397.843 319.599C393.536 313.723 396.435 303.404 407.126 302.796C415.795 303.135 418.929 309.881 418.385 314.562Z" fill="white"/>
<path d="M460.136 315.463C458.679 324.906 446.186 328.15 440.184 320.644C434.879 314.01 439.003 303.211 449.452 303.013C458.039 303.7 460.869 310.707 460.136 315.463Z" fill="white"/>
<path d="M499.645 317.975C497.909 327.161 486.111 329.836 480.803 322.247C476.111 315.539 480.392 305.128 490.163 305.353C498.156 306.371 500.519 313.347 499.645 317.975Z" fill="white"/>
<path d="M536.242 322.096C534.365 330.647 523.932 332.662 519.581 325.315C515.742 318.835 519.903 309.262 528.443 309.88C535.39 311.165 537.186 317.797 536.242 322.096Z" fill="white"/>
<path d="M568.661 327.707C566.894 335.058 559.323 336.818 555.801 330.697C552.372 324.737 556.028 315.509 563.105 316.439C568.466 317.846 569.581 323.875 568.661 327.707Z" fill="white"/>
<path d="M595.268 334.452C593.844 340.058 589.132 341.846 586.576 337.75C583.508 332.835 586.348 323.395 591.854 324.543C595.592 325.936 596.1 331.176 595.268 334.452Z" fill="white"/>
<path d="M616.016 342.109C614.975 346.086 612.405 347.639 610.829 345.245C608.42 341.584 610.799 333.266 614.051 333.977C614.15 333.999 614.274 334.05 614.371 334.081C616.634 335.313 616.695 339.517 616.016 342.109Z" fill="white"/>
<path d="M631.107 350.608C630.375 353.379 629.013 354.542 628.249 353.046C626.916 350.436 628.658 343.771 630.494 344.454C630.547 344.474 630.61 344.516 630.66 344.542C631.81 345.539 631.613 348.689 631.107 350.608Z" fill="white"/>
<path d="M640.479 359.783C640.096 361.256 639.59 362.074 639.303 361.687C638.611 360.757 639.722 355.432 640.567 355.626C640.614 355.637 640.661 355.687 640.694 355.722C641.091 356.424 640.807 358.52 640.479 359.783Z" fill="white"/>
<path d="M644.082 369.405C644.01 369.689 643.88 370.175 643.802 370.235C643.642 370.073 644.246 367.713 644.362 367.619C644.373 367.63 644.383 367.65 644.385 367.665C644.398 367.978 644.215 368.87 644.082 369.405Z" fill="white"/>
<path d="M144.757 390.152C144.832 390.404 144.657 390.596 144.449 390.49C144.224 390.375 144.151 389.994 144.39 389.894C144.585 389.842 144.719 390.025 144.757 390.152Z" fill="white"/>
<path d="M176.602 380.79C176.941 382.215 175.675 383.204 174.486 382.442C173.333 381.703 173.181 379.783 174.552 379.331C175.673 379.103 176.425 380.047 176.602 380.79Z" fill="white"/>
<path d="M212.329 372.724C212.812 375.5 210.029 377.32 207.677 375.768C205.382 374.254 205.355 370.521 208.287 369.745C210.656 369.388 212.076 371.272 212.329 372.724Z" fill="white"/>
<path d="M250.753 366.05C251.209 370.218 246.437 372.591 243.133 369.841C240.244 367.437 240.762 362.517 245.017 361.611C248.596 361.226 250.526 363.975 250.753 366.05Z" fill="white"/>
<path d="M291.043 360.805C291.277 366.013 284.916 368.767 280.884 365.204C277.335 362.068 278.407 355.934 283.997 354.986C288.663 354.664 290.926 358.195 291.043 360.805Z" fill="white"/>
<path d="M332.619 357.029C332.5 363.285 324.533 366.321 319.896 361.878C315.805 357.959 317.575 350.639 324.461 349.74C330.187 349.552 332.679 353.889 332.619 357.029Z" fill="white"/>
<path d="M374.259 354.749C373.663 362.071 363.9 364.87 359.337 359.029C356.032 354.798 357.891 347.093 365.704 346.358C372.076 346.376 374.542 351.276 374.259 354.749Z" fill="white"/>
<path d="M415.522 354.003C414.405 361.881 403.803 364.52 399.317 358.036C396.058 353.327 398.54 345.06 406.936 344.576C413.742 344.849 416.054 350.252 415.522 354.003Z" fill="white"/>
<path d="M455.35 354.788C453.844 362.366 443.881 364.985 439.438 358.971C435.495 353.634 439.136 344.941 447.381 344.777C454.141 345.326 456.11 350.962 455.35 354.788Z" fill="white"/>
<path d="M493.085 357.104C491.236 364.439 481.809 366.595 478.031 360.548C474.679 355.185 478.581 346.849 486.261 347.018C492.518 347.823 494.018 353.4 493.085 357.104Z" fill="white"/>
<path d="M528.182 360.977C526.132 367.789 517.741 369.419 514.783 363.581C512.165 358.412 516.077 350.76 522.794 351.238C528.228 352.253 529.216 357.544 528.182 360.977Z" fill="white"/>
<path d="M559.453 366.317C557.452 372.21 551.231 373.641 548.887 368.747C546.604 363.98 550.252 356.575 555.851 357.302C560.067 358.419 560.495 363.246 559.453 366.317Z" fill="white"/>
<path d="M585.024 372.7C583.353 377.237 579.186 378.462 577.714 374.85C576.086 370.851 579.124 364.225 583.166 365.057C585.997 366.124 585.956 370.168 585.024 372.7Z" fill="white"/>
<path d="M605.17 380.059C603.914 383.283 601.507 384.413 600.572 382.216C599.323 379.282 601.813 372.988 604.562 373.866C606.277 374.814 605.95 378.058 605.17 380.059Z" fill="white"/>
<path d="M619.769 388.167C618.951 390.195 617.778 391.047 617.308 389.955C616.488 388.048 618.433 383.18 619.815 383.678C619.855 383.692 619.902 383.723 619.938 383.742C620.759 384.469 620.333 386.767 619.769 388.167Z" fill="white"/>
<path d="M628.876 396.893C628.483 397.857 628.04 398.353 627.889 397.999C627.579 397.27 628.681 394.23 629.214 394.344C629.243 394.35 629.275 394.381 629.297 394.403C629.531 394.833 629.192 396.118 628.876 396.893Z" fill="white"/>
<path d="M632.487 406.125C632.469 406.169 632.378 406.391 632.343 406.386C632.298 406.321 632.579 405.548 632.642 405.56C632.645 405.563 632.646 405.569 632.647 405.574C632.65 405.674 632.555 405.956 632.487 406.125Z" fill="white"/>
<path d="M189.507 417.484C189.668 417.969 189.296 418.317 188.854 418.096C188.38 417.858 188.221 417.127 188.725 416.959C189.118 416.88 189.419 417.219 189.507 417.484Z" fill="white"/>
<path d="M222.626 409.934C223.028 411.554 221.488 412.608 220.053 411.697C218.654 410.809 218.475 408.634 220.142 408.188C221.505 407.985 222.415 409.087 222.626 409.934Z" fill="white"/>
<path d="M258.348 403.667C258.785 406.322 255.995 407.951 253.685 406.391C251.415 404.859 251.435 401.296 254.368 400.666C256.732 400.416 258.118 402.27 258.348 403.667Z" fill="white"/>
<path d="M295.824 398.726C296.122 402.451 291.746 404.405 288.835 401.847C286.218 399.548 286.786 395.24 290.745 394.563C294.001 394.344 295.675 396.866 295.824 398.726Z" fill="white"/>
<path d="M334.414 395.146C334.399 399.686 328.787 401.881 325.452 398.652C322.503 395.796 323.674 390.475 328.551 389.831C332.608 389.703 334.422 392.862 334.414 395.146Z" fill="white"/>
<path d="M373.29 392.955C372.846 398.125 366.251 400.4 362.758 396.587C359.661 393.207 361.482 387.183 367.095 386.647C371.739 386.668 373.514 390.348 373.29 392.955Z" fill="white"/>
<path d="M411.747 392.187C410.763 398.125 402.946 400.115 399.798 395.228C397.25 391.274 399.727 385.418 405.653 385.068C410.635 385.277 412.216 389.356 411.747 392.187Z" fill="white"/>
<path d="M448.908 392.838C447.536 398.505 440.194 400.47 437.182 395.976C434.509 391.988 437.466 385.483 443.465 385.356C448.371 385.762 449.601 389.975 448.908 392.838Z" fill="white"/>
<path d="M484.336 394.945C482.591 400.48 475.535 402.12 473.066 397.564C470.827 393.432 474.059 387.235 479.82 387.353C484.397 387.951 485.216 392.152 484.336 394.945Z" fill="white"/>
<path d="M517.319 398.511C515.355 403.633 509.037 404.88 507.23 400.501C505.631 396.625 509.02 390.865 513.956 391.208C517.92 391.958 518.31 395.93 517.319 398.511Z" fill="white"/>
<path d="M546.731 403.44C544.878 407.646 540.186 408.723 538.886 405.24C537.596 401.781 540.791 396.385 544.782 396.894C547.763 397.694 547.717 401.204 546.731 403.44Z" fill="white"/>
<path d="M570.978 409.413C569.392 412.671 566.273 413.564 565.507 410.979C564.663 408.134 567.4 403.393 570.245 403.969C572.212 404.721 571.858 407.605 570.978 409.413Z" fill="white"/>
<path d="M590.053 416.281C588.907 418.468 587.13 419.24 586.657 417.756C586.027 415.784 588.281 411.531 590.125 412.109C591.251 412.743 590.76 414.93 590.053 416.281Z" fill="white"/>
<path d="M603.92 423.86C603.263 425.055 602.463 425.561 602.241 424.921C601.867 423.844 603.458 420.934 604.267 421.213C604.29 421.221 604.318 421.239 604.34 421.25C604.807 421.674 604.375 423.032 603.92 423.86Z" fill="white"/>
<path d="M612.638 432.026C612.438 432.38 612.235 432.562 612.186 432.433C612.075 432.144 612.698 430.972 612.895 431.098C612.9 431.102 612.905 431.109 612.909 431.113C612.99 431.269 612.8 431.741 612.638 432.026Z" fill="white"/>
<path d="M235.027 445.122C235.179 445.582 234.804 445.893 234.368 445.668C233.882 445.417 233.78 444.756 234.204 444.612C234.219 444.607 234.24 444.603 234.255 444.598C234.648 444.541 234.943 444.87 235.027 445.122Z" fill="white"/>
<path d="M267.499 439.364C267.81 440.744 266.451 441.577 265.226 440.757C264.035 439.961 263.929 438.123 265.383 437.807C266.572 437.683 267.336 438.643 267.499 439.364Z" fill="white"/>
<path d="M301.576 434.811C301.831 436.93 299.558 438.132 297.776 436.822C296.028 435.537 296.167 432.715 298.514 432.309C300.403 432.184 301.441 433.697 301.576 434.811Z" fill="white"/>
<path d="M336.687 431.491C336.731 434.42 333.265 435.822 331.151 433.729C329.291 431.888 329.961 428.472 332.979 428.067C335.5 427.992 336.665 430.024 336.687 431.491Z" fill="white"/>
<path d="M372.179 429.438C371.866 432.978 367.524 434.522 365.245 431.906C363.187 429.544 364.38 425.503 368.137 425.139C371.184 425.156 372.335 427.663 372.179 429.438Z" fill="white"/>
<path d="M407.126 428.662C406.411 432.446 401.656 433.935 399.531 431.04C397.606 428.416 399.303 424.113 403.321 423.869C406.543 424.01 407.486 426.756 407.126 428.662Z" fill="white"/>
<path d="M441.202 429.204C440.074 433.137 435.093 434.505 433.247 431.388C431.574 428.564 433.746 424.124 437.839 424.029C441.103 424.307 441.77 427.222 441.202 429.204Z" fill="white"/>
<path d="M473.623 431.061C472.171 434.878 467.381 436.019 465.973 432.885C464.699 430.049 467.178 425.783 471.008 425.854C474.025 426.257 474.353 429.141 473.623 431.061Z" fill="white"/>
<path d="M503.852 434.25C502.238 437.685 498.028 438.537 497.128 435.611C496.315 432.968 498.85 429.174 502.118 429.394C504.658 429.881 504.661 432.528 503.852 434.25Z" fill="white"/>
<path d="M530.981 438.719C529.486 441.446 526.397 442.158 525.816 439.91C525.242 437.685 527.681 434.193 530.199 434.506C532.055 435.013 531.774 437.274 530.981 438.719Z" fill="white"/>
<path d="M553.447 444.183C552.249 446.133 550.332 446.776 549.91 445.37C549.407 443.695 551.569 440.424 553.403 440.787C554.589 441.248 554.142 443.05 553.447 444.183Z" fill="white"/>
<path d="M571.063 450.419C570.294 451.569 569.276 451.982 569.118 451.206C568.909 450.176 570.423 447.937 571.388 448.233C571.954 448.558 571.539 449.708 571.063 450.419Z" fill="white"/>
<path d="M583.958 457.343C583.685 457.727 583.379 457.897 583.329 457.693C583.248 457.365 583.901 456.338 584.213 456.492C584.358 456.629 584.151 457.072 583.958 457.343Z" fill="white"/>
<path d="M592.112 465.06L592.158 464.949L592.236 464.883L592.191 464.994L592.112 465.06Z" fill="white"/>
<path d="M308.36 468.608C308.503 469.452 307.669 469.922 306.966 469.395C306.271 468.873 306.266 467.782 307.158 467.624C307.866 467.58 308.287 468.173 308.36 468.608Z" fill="white"/>
<path d="M339.454 465.614C339.508 466.993 338.03 467.715 336.983 466.821C335.935 465.925 336.156 464.133 337.675 463.927C338.856 463.895 339.426 464.894 339.454 465.614Z" fill="white"/>
<path d="M370.82 463.731C370.656 465.593 368.486 466.399 367.354 465.018C366.341 463.782 366.954 461.672 368.825 461.485C370.336 461.499 370.901 462.806 370.82 463.731Z" fill="white"/>
<path d="M401.982 462.995C401.519 465.177 398.897 466.031 397.795 464.359C396.805 462.858 397.821 460.399 400.008 460.262C401.752 460.342 402.212 461.908 401.982 462.995Z" fill="white"/>
<path d="M432.229 463.408C431.477 465.662 428.728 466.445 427.839 464.659C427.043 463.059 428.38 460.543 430.59 460.487C432.342 460.641 432.604 462.288 432.229 463.408Z" fill="white"/>
<path d="M461.123 465C460.154 467.154 457.522 467.803 456.921 466.039C456.384 464.459 457.926 462.076 459.971 462.109C461.567 462.326 461.606 463.93 461.123 465Z" fill="white"/>
<path d="M488.16 467.789C487.153 469.575 485.001 470.131 484.561 468.719C484.129 467.335 485.777 465.051 487.534 465.163C488.843 465.42 488.688 466.853 488.16 467.789Z" fill="white"/>
<path d="M512.505 471.731C511.624 473.05 510.128 473.477 509.881 472.479C509.611 471.387 511.089 469.47 512.387 469.626C513.273 469.873 512.99 471.006 512.505 471.731Z" fill="white"/>
</g>
<rect x="1" width="697" height="556" fill="url(#paint0_linear_2329_25460)"/>
</g>
<defs>
<linearGradient id="paint0_linear_2329_25460" x1="349.5" y1="0" x2="349.5" y2="556" gradientUnits="userSpaceOnUse">
<stop stop-color="#564CD8" stop-opacity="0"/>
<stop offset="0.561322" stop-color="#564CD8" stop-opacity="0.491892"/>
<stop offset="0.833953" stop-color="#564CD8"/>
</linearGradient>
<clipPath id="clip0_2329_25460">
<rect width="698" height="470" fill="white"/>
</clipPath>
</defs>
</svg>
