<svg width="24" height="24" viewBox="0 0 24 24" fill="none" xmlns="http://www.w3.org/2000/svg">
<path d="M3.63732 3.43383L12.3773 12.0048L3.70232 20.6548C3.5604 20.47 3.45022 20.2628 3.37632 20.0418C3.3381 19.7916 3.3381 19.5371 3.37632 19.2868V4.56683C3.35032 4.17183 3.44132 3.77683 3.63632 3.43383M16.1423 8.26683L13.2893 11.0928L4.65332 2.59983C4.93332 2.50283 5.23332 2.47583 5.52632 2.52183C5.98632 2.64783 6.42532 2.84183 6.82832 3.09483L14.6443 7.41983C15.1523 7.69283 15.6473 7.97983 16.1423 8.26683ZM13.2903 12.9298L16.1293 15.7178L14.0713 16.8638L7.79232 20.3538C7.27232 20.6408 6.75032 20.9148 6.24232 21.2278C6.02495 21.3632 5.78121 21.4506 5.52737 21.4842C5.27353 21.5178 5.01543 21.4969 4.77032 21.4228L13.2903 12.9298ZM20.6503 12.0048C20.6576 12.3545 20.5693 12.6995 20.3948 13.0027C20.2203 13.3058 19.9663 13.5555 19.6603 13.7248L17.3143 15.0268L14.2273 12.0048L17.3273 8.93083C18.1223 9.37383 18.9043 9.81683 19.6853 10.2338C19.9968 10.4079 20.2526 10.6666 20.4232 10.98C20.5938 11.2934 20.6732 11.6487 20.6503 12.0048Z" fill="black"/>
</svg>
