<svg width="48" height="48" viewBox="0 0 48 48" fill="none" xmlns="http://www.w3.org/2000/svg">
<rect width="48" height="48" rx="24" fill="#0B0C0C"/>
<path d="M15.6373 15.9338L24.3773 24.5048L15.7023 33.1548C15.5604 32.97 15.4502 32.7628 15.3763 32.5418C15.3381 32.2916 15.3381 32.0371 15.3763 31.7868V17.0668C15.3503 16.6718 15.4413 16.2768 15.6363 15.9338M28.1423 20.7668L25.2893 23.5928L16.6533 15.0998C16.9333 15.0028 17.2333 14.9758 17.5263 15.0218C17.9863 15.1478 18.4253 15.3418 18.8283 15.5948L26.6443 19.9198C27.1523 20.1928 27.6473 20.4798 28.1423 20.7668ZM25.2903 25.4298L28.1293 28.2178L26.0713 29.3638L19.7923 32.8538C19.2723 33.1408 18.7503 33.4148 18.2423 33.7278C18.025 33.8632 17.7812 33.9506 17.5274 33.9842C17.2735 34.0178 17.0154 33.9969 16.7703 33.9228L25.2903 25.4298ZM32.6503 24.5048C32.6576 24.8545 32.5693 25.1995 32.3948 25.5027C32.2203 25.8058 31.9663 26.0555 31.6603 26.2248L29.3143 27.5268L26.2273 24.5048L29.3273 21.4308C30.1223 21.8738 30.9043 22.3168 31.6853 22.7338C31.9968 22.9079 32.2526 23.1666 32.4232 23.48C32.5938 23.7934 32.6732 24.1487 32.6503 24.5048Z" fill="white"/>
</svg>
