<svg width="40" height="40" viewBox="0 0 40 40" fill="none" xmlns="http://www.w3.org/2000/svg">
<rect x="0.5" y="0.5" width="39" height="39" rx="19.5" stroke="#E3E3E4"/>
<path d="M17 30H23C28 30 30 28 30 23V17C30 12 28 10 23 10H17C12 10 10 12 10 17V23C10 28 12 30 17 30Z" stroke="#717477" stroke-width="1.5" stroke-linecap="round" stroke-linejoin="round"/>
<path d="M20 23.5C21.933 23.5 23.5 21.933 23.5 20C23.5 18.067 21.933 16.5 20 16.5C18.067 16.5 16.5 18.067 16.5 20C16.5 21.933 18.067 23.5 20 23.5Z" stroke="#717477" stroke-width="1.5" stroke-linecap="round" stroke-linejoin="round"/>
<path d="M25.6361 15H25.6477" stroke="#717477" stroke-width="2" stroke-linecap="round" stroke-linejoin="round"/>
</svg>
