<svg width="40" height="40" viewBox="0 0 40 40" fill="none" xmlns="http://www.w3.org/2000/svg">
<rect x="0.5" y="0.5" width="39" height="39" rx="19.5" stroke="#E3E3E4"/>
<path d="M15.5 17H11.5C11.3674 17 11.2402 17.0527 11.1464 17.1464C11.0526 17.2402 11 17.3674 11 17.5V29.5C11 29.6326 11.0526 29.7598 11.1464 29.8535C11.2402 29.9473 11.3674 30 11.5 30H15.5C15.6326 30 15.7597 29.9473 15.8535 29.8535C15.9473 29.7598 16 29.6326 16 29.5V17.5C16 17.3674 15.9473 17.2402 15.8535 17.1464C15.7597 17.0527 15.6326 17 15.5 17ZM15 29H12V18H15V29ZM26 17C24.915 17 23.86 17.358 23 18.019V17.5C23 17.3674 22.9473 17.2402 22.8535 17.1464C22.7597 17.0527 22.6326 17 22.5 17H18.5C18.3674 17 18.2402 17.0527 18.1464 17.1464C18.0526 17.2402 18 17.3674 18 17.5V29.5C18 29.6326 18.0526 29.7598 18.1464 29.8535C18.2402 29.9473 18.3674 30 18.5 30H22.5C22.6326 30 22.7597 29.9473 22.8535 29.8535C22.9473 29.7598 23 29.6326 23 29.5V24C23 23.6021 23.158 23.2206 23.4393 22.9393C23.7206 22.658 24.1021 22.5 24.5 22.5C24.8978 22.5 25.2793 22.658 25.5606 22.9393C25.8419 23.2206 26 23.6021 26 24V29.5C26 29.6326 26.0526 29.7598 26.1464 29.8535C26.2402 29.9473 26.3674 30 26.5 30H30.5C30.6326 30 30.7597 29.9473 30.8535 29.8535C30.9473 29.7598 31 29.6326 31 29.5V22C30.9984 20.6744 30.4711 19.4035 29.5337 18.4662C28.5964 17.5289 27.3256 17.0016 26 17ZM30 29H27V24C27 23.3369 26.7366 22.701 26.2677 22.2322C25.7989 21.7634 25.163 21.5 24.5 21.5C23.8369 21.5 23.201 21.7634 22.7322 22.2322C22.2634 22.701 22 23.3369 22 24V29H19V18H22V19.203C21.9999 19.3065 22.0321 19.4075 22.0919 19.4921C22.1518 19.5766 22.2364 19.6404 22.3341 19.6748C22.4318 19.7091 22.5377 19.7123 22.6373 19.6839C22.7369 19.6554 22.8252 19.5967 22.89 19.516C23.4035 18.865 24.1073 18.3906 24.9034 18.1588C25.6994 17.927 26.548 17.9494 27.3307 18.2228C28.1134 18.4963 28.7912 19.0072 29.2697 19.6842C29.7482 20.3613 30.0035 21.1709 30 22V29ZM13.868 10.002C13.7504 9.99438 13.6326 9.99371 13.515 9.99997C13.1407 9.97451 12.7653 10.0262 12.4118 10.1517C12.0583 10.2773 11.7344 10.4741 11.4601 10.7299C11.1858 10.9857 10.967 11.2952 10.8171 11.639C10.6673 11.9829 10.5896 12.3539 10.589 12.729C10.5859 13.1002 10.659 13.468 10.804 13.8097C10.9489 14.1515 11.1625 14.4598 11.4315 14.7156C11.7005 14.9713 12.0191 15.1691 12.3677 15.2967C12.7163 15.4242 13.0874 15.4788 13.458 15.457H13.486C13.8441 15.4821 14.2038 15.4363 14.5443 15.3224C14.8848 15.2086 15.1995 15.0287 15.4705 14.7932C15.7415 14.5576 15.9635 14.271 16.1238 13.9497C16.284 13.6284 16.3794 13.2787 16.4045 12.9205C16.4295 12.5623 16.3838 12.2027 16.2699 11.8622C16.156 11.5217 15.9762 11.2069 15.7407 10.9359C15.5051 10.6649 15.2185 10.4429 14.8972 10.2827C14.5759 10.1224 14.2261 10.0271 13.868 10.002ZM13.833 14.46C13.7176 14.4706 13.602 14.4696 13.486 14.457H13.458C13.2173 14.4751 12.9755 14.4428 12.748 14.3622C12.5205 14.2816 12.3123 14.1544 12.1367 13.9888C11.9612 13.8232 11.822 13.6228 11.7283 13.4004C11.6345 13.1781 11.5881 12.9386 11.5921 12.6972C11.596 12.4559 11.6503 12.2181 11.7514 11.9989C11.8524 11.7797 11.9981 11.5841 12.179 11.4243C12.36 11.2646 12.5722 11.1444 12.8023 11.0713C13.0323 10.9983 13.275 10.974 13.515 11C13.9738 10.9578 14.4306 11.0996 14.7848 11.3942C15.1391 11.6889 15.3618 12.1121 15.404 12.571C15.4461 13.0298 15.3043 13.4866 15.0097 13.8408C14.7151 14.1951 14.2918 14.4178 13.833 14.46Z" fill="#717477"/>
</svg>
