<svg width="40" height="40" viewBox="0 0 40 40" fill="none" xmlns="http://www.w3.org/2000/svg">
<rect x="0.5" y="0.5" width="39" height="39" rx="19.5" stroke="#E3E3E4"/>
<path d="M29 14.9375C27.7573 14.936 26.5658 14.4417 25.6871 13.5629C24.8083 12.6842 24.314 11.4927 24.3125 10.25C24.3125 10.1008 24.2532 9.95774 24.1477 9.85225C24.0423 9.74676 23.8992 9.6875 23.75 9.6875H20C19.8508 9.6875 19.7077 9.74676 19.6023 9.85225C19.4968 9.95774 19.4375 10.1008 19.4375 10.25V22.625C19.4373 22.994 19.338 23.3563 19.1501 23.6739C18.9622 23.9915 18.6925 24.2529 18.3692 24.4308C18.0459 24.6087 17.6807 24.6966 17.3119 24.6853C16.943 24.674 16.5839 24.5639 16.2721 24.3666C15.9602 24.1692 15.7071 23.8918 15.5389 23.5633C15.3708 23.2348 15.2939 22.8672 15.3163 22.4988C15.3386 22.1304 15.4594 21.7748 15.666 21.469C15.8726 21.1632 16.1575 20.9185 16.4909 20.7603C16.5871 20.7147 16.6684 20.6428 16.7253 20.5528C16.7822 20.4629 16.8125 20.3586 16.8125 20.2522V16.25C16.8124 16.1682 16.7945 16.0875 16.76 16.0134C16.7256 15.9392 16.6753 15.8735 16.6129 15.8208C16.5504 15.768 16.4772 15.7295 16.3983 15.708C16.3195 15.6864 16.2369 15.6823 16.1562 15.6959C12.8938 16.2762 10.4375 19.2547 10.4375 22.625C10.4375 24.4649 11.1684 26.2295 12.4694 27.5306C13.7705 28.8316 15.5351 29.5625 17.375 29.5625C19.2149 29.5625 20.9795 28.8316 22.2806 27.5306C23.5816 26.2295 24.3125 24.4649 24.3125 22.625V18.5872C25.7428 19.394 27.3578 19.8162 29 19.8125C29.1492 19.8125 29.2923 19.7532 29.3977 19.6477C29.5032 19.5423 29.5625 19.3992 29.5625 19.25V15.5C29.5625 15.3508 29.5032 15.2077 29.3977 15.1023C29.2923 14.9968 29.1492 14.9375 29 14.9375ZM28.4375 18.6688C26.866 18.5684 25.3548 18.026 24.0781 17.1041C23.994 17.0436 23.8948 17.0076 23.7914 17C23.6881 16.9923 23.5847 17.0134 23.4926 17.0608C23.4004 17.1082 23.3232 17.1802 23.2694 17.2687C23.2155 17.3572 23.1872 17.4589 23.1875 17.5625V22.625C23.1875 24.1666 22.5751 25.645 21.4851 26.7351C20.395 27.8251 18.9166 28.4375 17.375 28.4375C15.8334 28.4375 14.355 27.8251 13.2649 26.7351C12.1749 25.645 11.5625 24.1666 11.5625 22.625C11.5625 20.0262 13.2941 17.705 15.6875 16.9644V19.9203C15.2168 20.2141 14.8309 20.6256 14.568 21.1142C14.3051 21.6029 14.1743 22.1517 14.1886 22.7064C14.2028 23.261 14.3616 23.8024 14.6492 24.2769C14.9369 24.7514 15.3434 25.1425 15.8286 25.4117C16.3138 25.6809 16.8609 25.8188 17.4157 25.8117C17.9705 25.8046 18.5139 25.6528 18.992 25.3714C19.4702 25.0899 19.8666 24.6884 20.142 24.2068C20.4175 23.7251 20.5624 23.1799 20.5625 22.625V10.8125H23.2147C23.3466 12.1529 23.9392 13.406 24.8916 14.3584C25.844 15.3108 27.0971 15.9034 28.4375 16.0353V18.6688Z" fill="#717477"/>
</svg>
