<svg width="40" height="40" viewBox="0 0 40 40" fill="none" xmlns="http://www.w3.org/2000/svg">
<rect x="0.5" y="0.5" width="39" height="39" rx="19.5" stroke="#E3E3E4"/>
<path d="M17.25 16.0702C17.3263 16.0264 17.4128 16.0036 17.5008 16.0039C17.5888 16.0043 17.6751 16.0278 17.751 16.0722L23.751 19.5722C23.8266 19.6162 23.8892 19.6793 23.9328 19.7551C23.9764 19.8309 23.9993 19.9168 23.9993 20.0042C23.9993 20.0916 23.9764 20.1775 23.9328 20.2533C23.8892 20.3291 23.8266 20.3922 23.751 20.4362L17.751 23.9362C17.675 23.9806 17.5885 24.0041 17.5005 24.0043C17.4124 24.0046 17.3258 23.9816 17.2495 23.9376C17.1732 23.8937 17.1099 23.8304 17.0659 23.7541C17.0219 23.6778 16.9988 23.5912 16.999 23.5032V16.5032C16.999 16.3242 17.095 16.1602 17.25 16.0702Z" fill="#717477"/>
<path fill-rule="evenodd" clip-rule="evenodd" d="M19.7001 11H19.6971C19.0201 11.005 17.3071 11.024 15.5771 11.094C14.7121 11.13 13.8371 11.178 13.0671 11.246C12.3281 11.312 11.6271 11.4 11.1471 11.534C10.5071 11.714 9.92711 12.064 9.46711 12.544C9.00412 13.0249 8.67341 13.6175 8.50711 14.264L8.49411 14.309L8.48711 14.355C7.96111 17.565 7.74011 22.515 8.51611 25.755L8.51811 25.763L8.52011 25.772C8.68796 26.4181 9.01885 27.0104 9.48111 27.492C9.94311 27.972 10.5211 28.322 11.1611 28.502C11.5941 28.625 12.2111 28.708 12.8611 28.769C13.6032 28.8353 14.3467 28.884 15.0911 28.915L15.9341 28.949C17.2841 28.996 18.5841 29.013 19.3341 29.019L20.0771 29.023H20.0841C20.4551 29.022 22.1941 29.015 24.0441 28.95C24.9681 28.918 25.9341 28.871 26.7641 28.803C27.5741 28.737 28.3541 28.645 28.8541 28.503C29.4941 28.323 30.0741 27.973 30.5341 27.493C30.9971 27.013 31.3271 26.423 31.4951 25.773L31.5051 25.732L31.5131 25.69C32.0701 22.46 32.2561 17.52 31.4861 14.29L31.4841 14.28L31.4811 14.27C31.3133 13.6239 30.9824 13.0316 30.5201 12.55C30.0599 12.07 29.4799 11.7213 28.8401 11.54C28.3831 11.412 27.7101 11.326 27.0101 11.262C26.2147 11.1943 25.4178 11.1453 24.6201 11.115L24.3831 11.105C23.1336 11.0592 21.8824 11.0319 20.6321 11.023L20.0311 11.019L19.6871 11.021L19.7001 11ZM10.2001 13.24C10.5373 12.8884 10.9617 12.6327 11.4301 12.499C12.9201 12.076 18.3601 12.012 19.7101 12.002L20.0441 12.001L20.6421 12.004C21.4411 12.01 22.8921 12.029 24.3621 12.086L24.5971 12.095C26.2471 12.163 27.8771 12.281 28.5871 12.484C29.0531 12.614 29.4791 12.871 29.8171 13.224C30.1551 13.577 30.4051 14.021 30.5311 14.504C31.2581 17.544 31.0901 22.334 30.5451 25.504C30.4206 25.9848 30.1748 26.4255 29.8311 26.784C29.4941 27.1359 29.0696 27.392 28.6011 27.526C27.0011 27.98 20.8311 28.008 20.0911 28.01L19.3521 28.007C18.6031 28.001 17.3121 27.984 15.9721 27.937L15.5461 27.92L15.1391 27.903C13.5891 27.833 12.1091 27.717 11.4391 27.526C10.9699 27.3948 10.5448 27.1391 10.2091 26.786C9.86544 26.4275 9.61959 25.9868 9.49511 25.506C8.76511 22.486 8.96511 17.686 9.48111 14.506C9.60559 14.0252 9.85144 13.5845 10.1951 13.226L10.2001 13.24Z" fill="#717477"/>
</svg>
